<svg xmlns="http://www.w3.org/2000/svg" width="119" height="89" viewBox="0 0 119 89" fill="none"><g id="Layer_1" clip-path="url(#clip0_22_3070)"><path id="Vector" d="M59.2216 85.9735L10.5274 57.1819C5.62727 54.2846 2.75467 49.1525 2.83973 43.4513C2.92752 37.7502 5.95651 32.7088 10.9417 29.9626L59.7703 3.06775L108.237 30.6086C113.186 33.4207 116.147 38.5034 116.158 44.2045C116.169 49.9057 113.227 54.9993 108.289 57.8306L59.2188 85.9708L59.2216 85.9735ZM59.7621 4.5219L11.5535 31.0732C6.97165 33.5966 4.18686 38.2312 4.10729 43.4678C4.02773 48.7072 6.66711 53.4215 11.1722 56.0851L59.2298 84.5001L107.661 56.7283C112.199 54.1252 114.901 49.4438 114.89 44.2073C114.879 38.9707 112.157 34.2976 107.611 31.7137L59.7621 4.5219Z" fill="#17542A" style="fill:#17542A;fill:color(display-p3 0.0902 0.3294 0.1647);fill-opacity:1;"></path><g id="Group"><g id="Group_2"><path id="Vector_2" d="M18.6406 44.8285C18.6379 41.0818 21.0989 35.9909 24.7452 35.9882C26.9429 35.9882 28.1062 38.0251 27.3764 40.4661H25.5134C26.0841 38.8552 25.5135 37.7254 24.4764 37.7254C22.3747 37.7254 20.5008 41.6838 20.5036 44.7131C20.5036 46.1177 21.0633 46.9781 22.1772 46.9754C23.228 46.9754 24.0538 46.049 24.7068 44.7405L26.268 45.4085C25.5546 47.2283 24.0758 48.7429 21.911 48.7456C20.2072 48.7456 18.6461 47.4894 18.6434 44.8258L18.6406 44.8285Z" fill="#17542A" style="fill:#17542A;fill:color(display-p3 0.0902 0.3294 0.1647);fill-opacity:1;"></path><path id="Vector_3" d="M30.1666 45.9033C30.1666 44.6746 31.3409 43.3194 31.3409 42.569C31.3409 42.3133 31.2448 42.1374 30.9595 42.1401C29.67 42.1401 28.4298 45.3948 27.9552 47.1513H26.3008C27.2364 44.3942 28.5862 40.4056 29.7139 37.1345H31.3381C30.7345 38.8085 30.1638 40.4661 29.6069 42.1429C30.1775 41.1698 31.0391 40.675 31.8182 40.6723C32.5974 40.6695 33.0913 41.1973 33.1105 41.978C33.1434 43.1572 31.8567 44.7543 31.8567 45.4388C31.8567 45.6449 31.9856 45.7741 32.1749 45.7741C32.8114 45.7741 33.7827 44.5124 34.5921 42.8851L35.2944 43.6493C34.6908 45.0045 33.1956 47.3025 31.6207 47.3053C30.6659 47.3053 30.1721 46.717 30.1721 45.9033H30.1666Z" fill="#17542A" style="fill:#17542A;fill:color(display-p3 0.0902 0.3294 0.1647);fill-opacity:1;"></path><path id="Vector_4" d="M42.025 43.1985C41.6765 43.8692 40.4995 44.6361 39.2896 44.4437C38.8286 46.0078 37.6214 47.2998 35.9505 47.3025C34.5979 47.3025 33.7693 46.3157 33.7666 44.977C33.7666 42.7614 35.2427 40.6695 37.3608 40.6667C38.76 40.6667 39.4953 41.8295 39.4953 43.0088V43.1352C40.1812 43.3112 40.8644 43.0693 41.2787 42.3848L42.0277 43.1985H42.025ZM37.8382 43.138C37.8382 42.5167 37.583 42.0687 37.0892 42.0714C36.2304 42.0714 35.4018 43.5888 35.4046 44.7516C35.4046 45.469 35.7091 45.8346 36.17 45.8346C36.9986 45.8346 37.8409 44.3502 37.8382 43.138Z" fill="#17542A" style="fill:#17542A;fill:color(display-p3 0.0902 0.3294 0.1647);fill-opacity:1;"></path><path id="Vector_5" d="M53.8357 43.6328C52.7081 46.0573 51.564 47.3025 49.0014 47.3053C47.8875 47.3053 46.6446 46.75 46.1672 45.6807C45.8325 45.7934 45.4978 45.8401 45.1494 45.8401C44.5293 46.7005 43.6239 47.2915 42.4935 47.2943C41.1409 47.2943 40.3123 46.3074 40.3096 44.9687C40.3096 42.7531 41.7857 40.6613 43.9037 40.6585C45.303 40.6585 46.0383 41.8213 46.0383 43.0005C46.0383 43.4459 45.9752 43.8939 45.8654 44.3255C47.2181 43.8142 47.9643 41.9807 48.3128 40.5128H50.1263C50.5571 41.4997 51.4186 42.9648 51.4186 44.1468C51.4021 44.8313 51.1963 45.4553 50.7519 45.8704C51.468 45.4718 52.3734 44.5619 53.1526 42.8713L53.8385 43.6355L53.8357 43.6328ZM44.3811 43.1325C44.3811 42.5112 44.126 42.0632 43.6321 42.0659C42.7734 42.0659 41.9448 43.5833 41.9475 44.7461C41.9475 45.4635 42.2521 45.8291 42.713 45.8291C43.5416 45.8291 44.3839 44.3447 44.3811 43.1325ZM49.8273 44.5152C49.8273 43.6713 49.509 42.8576 49.1578 42.1704C48.7929 43.4156 48.1399 44.3887 47.347 45.0265C47.5391 45.458 47.9835 45.9666 48.6694 45.9666C49.402 45.9666 49.8135 45.2491 49.83 44.5152H49.8273Z" fill="#17542A" style="fill:#17542A;fill:color(display-p3 0.0902 0.3294 0.1647);fill-opacity:1;"></path><path id="Vector_6" d="M58.6488 45.7027C57.9025 46.5328 56.6295 47.2833 55.1644 47.2833C53.5895 47.2833 52.3631 46.3926 52.3604 44.7351C52.3604 42.6459 53.7569 40.6503 55.8256 40.6503C57.0822 40.6503 57.7516 41.5739 57.7516 42.5305C57.7516 44.397 55.6225 45.2766 54.0148 44.911C54.1273 45.5487 54.5882 45.9308 55.5128 45.9308C56.4209 45.9308 57.4224 45.1474 57.9793 44.5894L58.6488 45.7054V45.7027ZM54.0477 43.8884C55.0656 44.0149 56.2426 43.4404 56.2591 42.5937C56.2755 42.2281 56.067 41.9725 55.7158 41.9725C54.9202 41.9725 54.2535 42.8356 54.0477 43.8884Z" fill="#17542A" style="fill:#17542A;fill:color(display-p3 0.0902 0.3294 0.1647);fill-opacity:1;"></path><path id="Vector_7" d="M71.8203 36.1064C70.3909 40.2214 68.8983 44.386 67.5979 48.5478H65.4167C65.2548 45.5048 65.1258 42.393 65.0902 39.3473C64.0586 42.393 63.0736 45.5048 62.1215 48.5505H60.3711C61.7374 44.4052 63.1175 40.2572 64.5771 36.1091H66.6293C66.665 39.3446 66.7638 42.7421 66.9092 46.0106C67.8942 42.7394 69.0355 39.3418 70.0671 36.1036H71.8176L71.8203 36.1064Z" fill="#17542A" style="fill:#17542A;fill:color(display-p3 0.0902 0.3294 0.1647);fill-opacity:1;"></path><path id="Vector_8" d="M78.9597 43.6107C78.3561 44.9659 76.8608 47.264 75.3326 47.2667C74.5671 47.2667 74.1391 46.7417 74.0431 46.2002C73.6946 46.7582 73.1212 47.2695 72.2295 47.2695C71.1321 47.2695 70.4297 46.3624 70.4297 44.9577C70.4297 42.8218 71.9058 40.6337 73.7056 40.6337C74.3421 40.6337 74.9622 41.0323 75.2036 41.4611L75.4259 40.7904H77.0501C75.6536 44.6168 75.2393 45.7329 75.8456 45.7329C76.452 45.7329 77.4507 44.5206 78.2628 42.8438L78.9652 43.608L78.9597 43.6107ZM74.8195 42.6102C74.611 42.3078 74.2626 42.0851 73.8647 42.0851C72.8139 42.0851 72.1143 43.5695 72.117 44.7983C72.117 45.3095 72.342 45.7384 72.8496 45.7384C73.5492 45.7384 74.1857 44.7158 74.8195 42.6102Z" fill="#17542A" style="fill:#17542A;fill:color(display-p3 0.0902 0.3294 0.1647);fill-opacity:1;"></path><path id="Vector_9" d="M82.8281 43.608C82.2245 44.9632 80.7292 47.2612 79.201 47.264C76.9896 47.264 77.3682 44.922 78.3367 42.0494H77.6536L78.0816 40.7904H78.7812L79.607 38.5721H81.2615C80.9267 39.3995 80.6414 40.1334 80.389 40.7877H81.7251L81.2807 42.0466H79.9281C78.9266 44.856 78.9129 45.7329 79.7086 45.7329C80.3286 45.7329 81.33 44.5206 82.1257 42.8438L82.8281 43.608Z" fill="#17542A" style="fill:#17542A;fill:color(display-p3 0.0902 0.3294 0.1647);fill-opacity:1;"></path><path id="Vector_10" d="M89.77 43.6026C89.1664 44.9577 87.6711 47.2558 86.1429 47.2585C85.4597 47.2585 84.9329 46.7802 84.9 45.9693C84.4391 46.6868 83.723 47.2613 82.8313 47.264C81.1439 47.264 80.7434 45.4168 82.7298 40.7905H84.4006C82.9246 44.2348 82.6392 45.7494 83.4651 45.7494C84.3567 45.7494 84.9274 44.3777 86.1676 40.7877H87.8549C86.505 44.5344 86.0112 45.7302 86.6504 45.7302C87.2705 45.7302 88.2719 44.5179 89.0676 42.8411L89.77 43.6053V43.6026Z" fill="#17542A" style="fill:#17542A;fill:color(display-p3 0.0902 0.3294 0.1647);fill-opacity:1;"></path><path id="Vector_11" d="M95.5644 43.597C94.9772 44.9385 93.4655 47.2503 91.9537 47.253C90.9825 47.253 90.4722 46.5521 90.4722 45.7384C90.4722 44.7488 90.9633 43.729 91.5833 42.404C91.2651 42.3875 90.8837 42.3408 90.5161 42.2446C89.8658 43.8087 89.0702 45.0045 88.2443 45.9941C87.4651 46.9204 86.8753 45.9638 87.5584 45.1666C88.6861 43.8417 89.3226 41.9285 89.7506 40.2214H91.1992C91.1361 40.4606 91.073 40.6832 90.9935 40.9224C91.7727 41.0653 93.0951 41.1286 93.6987 41.1121C93.0951 42.437 92.1403 44.5729 92.1431 45.3068C92.1431 45.5625 92.272 45.7219 92.4942 45.7219C93.1006 45.7219 94.1651 44.364 94.862 42.8329L95.5644 43.597Z" fill="#17542A" style="fill:#17542A;fill:color(display-p3 0.0902 0.3294 0.1647);fill-opacity:1;"></path><path id="Vector_12" d="M100.36 45.6669C99.6135 46.4971 98.3404 47.2475 96.8753 47.2475C95.3004 47.2475 94.074 46.3569 94.0713 44.6993C94.0713 42.6102 95.4678 40.6145 97.5365 40.6145C98.7931 40.6145 99.4625 41.5381 99.4653 42.4947C99.4653 44.3612 97.3362 45.2408 95.7285 44.8752C95.8409 45.513 96.3019 45.8951 97.2265 45.8951C98.1346 45.8951 99.1361 45.1116 99.693 44.5536L100.362 45.6697L100.36 45.6669ZM95.7559 43.8527C96.7738 43.9791 97.9508 43.4046 97.9673 42.558C97.9837 42.1924 97.7752 41.9367 97.424 41.9367C96.6284 41.9367 95.9617 42.7998 95.7559 43.8527Z" fill="#17542A" style="fill:#17542A;fill:color(display-p3 0.0902 0.3294 0.1647);fill-opacity:1;"></path></g><g id="Group_3"><path id="Vector_13" d="M34.9488 59.2353L34.4247 60.7994L28.6631 60.8049C30.0459 56.7366 31.4561 52.3824 32.8856 48.3636H34.6689C33.4151 51.8711 32.1448 55.6371 30.9705 59.2408H34.9488V59.2353Z" fill="#17542A" style="fill:#17542A;fill:color(display-p3 0.0902 0.3294 0.1647);fill-opacity:1;"></path><path id="Vector_14" d="M40.7708 55.8652C40.1836 57.2204 38.6883 59.5185 37.1437 59.5212C34.6771 59.5212 35.8514 56.4123 37.1053 53.0476H38.7597C37.7582 55.758 36.7897 57.9901 37.6485 57.9901C38.2686 57.9901 39.2727 56.7779 40.0821 55.101L40.768 55.8652H40.7708ZM37.4729 51.3543C37.4729 50.6039 38.093 49.9194 38.7761 49.9167C39.2535 49.9167 39.6047 50.2658 39.6047 50.7441C39.6047 51.4451 38.9682 52.1955 38.3015 52.1955C37.7747 52.1955 37.4729 51.8299 37.4729 51.3516V51.3543Z" fill="#17542A" style="fill:#17542A;fill:color(display-p3 0.0902 0.3294 0.1647);fill-opacity:1;"></path><path id="Vector_15" d="M47.4738 55.4117C47.0924 56.1292 45.8194 56.9291 44.5299 56.6102C43.7672 58.3008 42.4639 59.5295 41.0153 59.5323C39.8053 59.5323 39.3279 58.6719 39.3252 57.6355C39.3252 56.3601 39.9425 54.4441 40.4666 53.0422H42.1539C41.6299 54.5568 40.9467 56.5497 40.9467 57.4431C40.9467 57.7785 41.0756 57.9544 41.361 57.9544C42.1402 57.9544 43.619 55.6234 43.5531 53.0394H45.2569C45.2899 53.8201 45.1938 54.6173 44.9881 55.3677C45.6575 55.5272 46.3078 55.2715 46.7221 54.6008L47.4711 55.4144L47.4738 55.4117Z" fill="#17542A" style="fill:#17542A;fill:color(display-p3 0.0902 0.3294 0.1647);fill-opacity:1;"></path><path id="Vector_16" d="M51.9974 57.9268C51.2511 58.757 49.9781 59.5074 48.513 59.5074C46.9381 59.5074 45.7117 58.6168 45.709 56.9592C45.709 54.8701 47.1055 52.8744 49.1742 52.8744C50.4308 52.8744 51.1002 53.798 51.1002 54.7546C51.1002 56.6211 48.9712 57.5007 47.3634 57.1351C47.4759 57.7729 47.9368 58.155 48.8614 58.155C49.786 58.155 50.771 57.3715 51.328 56.8135L51.9974 57.9296V57.9268ZM47.3936 56.1126C48.4115 56.239 49.5885 55.6645 49.605 54.8178C49.6214 54.4522 49.4129 54.1966 49.0617 54.1966C48.2661 54.1966 47.5994 55.0597 47.3936 56.1126Z" fill="#17542A" style="fill:#17542A;fill:color(display-p3 0.0902 0.3294 0.1647);fill-opacity:1;"></path><path id="Vector_17" d="M60.5438 55.3512C61.6741 55.7333 62.5027 56.6404 62.5027 57.6767C62.5027 59.7494 60.2282 60.9314 57.8248 60.9341C56.0113 60.9341 54.0029 60.2524 53.2539 59.7246L54.0496 58.21C54.3514 58.3997 54.7025 58.5756 55.0537 58.735C55.8329 56.3738 56.6889 54.0125 57.4352 51.6512H59.2488L58.2967 54.4413C60.4944 54.4715 62.5933 53.5617 62.5933 51.8546C62.5933 50.5159 61.1748 49.815 59.7426 49.815C58.4696 49.815 57.1471 50.2163 56.1292 50.8375L55.4433 49.3559C56.5737 48.6055 58.2281 48.1739 59.7399 48.1711C62.3189 48.1711 64.4205 49.5538 64.4233 51.643C64.4233 53.4297 62.7551 54.9608 60.5438 55.3457V55.3512ZM60.6398 57.696C60.6398 56.6899 59.2213 55.9422 57.8056 55.8652C57.4078 57.0142 57.0292 58.1468 56.6944 59.2958C57.1252 59.392 57.5532 59.4552 57.9839 59.4552C59.4326 59.4552 60.6563 58.7983 60.6398 57.6987V57.696Z" fill="#17542A" style="fill:#17542A;fill:color(display-p3 0.0902 0.3294 0.1647);fill-opacity:1;"></path><path id="Vector_18" d="M71.3374 55.8377C70.4156 57.6712 69.4306 59.491 66.6458 59.4937C65.0709 59.4937 63.8445 58.6031 63.8418 56.9455C63.8418 54.8564 65.2383 52.8607 67.307 52.8607C68.5636 52.8607 69.2331 53.7843 69.2331 54.7409C69.2331 56.6377 67.104 57.4871 65.4962 57.1215C65.6087 57.7592 66.0696 58.1413 66.9942 58.1413C68.5389 58.1413 69.4772 57.3249 70.6049 55.0598L71.3374 55.8405V55.8377ZM65.5291 56.1126C66.547 56.2226 67.724 55.6811 67.7405 54.8042C67.757 54.4386 67.5485 54.1829 67.1973 54.1829C66.4016 54.1829 65.7349 55.0461 65.5291 56.1154V56.1126Z" fill="#17542A" style="fill:#17542A;fill:color(display-p3 0.0902 0.3294 0.1647);fill-opacity:1;"></path><path id="Vector_19" d="M79.0912 55.8295C78.4876 57.1847 76.995 59.4827 75.4668 59.4855C74.3996 59.4855 73.9386 58.9275 73.8563 58.0368C73.1896 58.8505 72.394 59.4882 71.5818 59.491C69.3705 59.491 69.7491 57.149 70.7176 54.2764H70.0344L70.4624 53.0174H71.1621L71.9879 50.7991H73.6423C73.3076 51.6265 73.0223 52.3604 72.7698 53.0147H75.0471C75.2995 52.278 75.5876 51.5303 75.8564 50.7963H77.5109C77.1761 51.6237 76.8908 52.3577 76.6384 53.0119H77.9745L77.5465 54.2709H76.1774C75.1925 57.0802 75.1788 57.9571 75.9744 57.9571C76.5945 57.9571 77.5794 56.7449 78.3916 55.0681L79.0912 55.8322V55.8295ZM74.1417 55.7718C74.2679 55.2935 74.427 54.7987 74.6026 54.2736H72.3089C71.3075 57.083 71.2938 57.9599 72.0894 57.9599C72.6162 57.9599 73.4256 57.0802 74.1417 55.7745V55.7718Z" fill="#17542A" style="fill:#17542A;fill:color(display-p3 0.0902 0.3294 0.1647);fill-opacity:1;"></path><path id="Vector_20" d="M85.0943 55.824C84.1724 57.6575 83.1874 59.4772 80.4026 59.48C78.8278 59.48 77.6014 58.5894 77.5986 56.9318C77.5986 54.8427 78.9951 52.847 81.0639 52.847C82.3204 52.847 82.9899 53.7706 82.9899 54.7272C82.9899 56.6239 80.8608 57.4733 79.253 57.1077C79.3655 57.7455 79.8265 58.1276 80.7511 58.1276C82.2958 58.1276 83.2341 57.3111 84.3617 55.0461L85.0943 55.8268V55.824ZM79.2832 56.1016C80.3011 56.2116 81.4781 55.6701 81.4946 54.7932C81.5111 54.4276 81.3026 54.1719 80.9514 54.1719C80.1557 54.1719 79.489 55.0351 79.2832 56.1044V56.1016Z" fill="#17542A" style="fill:#17542A;fill:color(display-p3 0.0902 0.3294 0.1647);fill-opacity:1;"></path><path id="Vector_21" d="M90.3646 57.2864C89.857 58.1633 88.6004 59.4717 87.2944 59.4745C86.3232 59.4745 85.8129 58.7735 85.8129 57.9598C85.8129 56.9703 86.304 55.9504 86.9076 54.6255C86.5893 54.609 86.1915 54.5622 85.8403 54.466C85.19 56.0301 84.3944 57.2259 83.5686 58.2155C82.7894 59.1419 82.1995 58.1853 82.8826 57.3881C84.013 56.0631 84.6468 54.1499 85.0748 52.4429H86.5235C86.4604 52.682 86.3972 52.9047 86.3177 53.1273C87.0969 53.2868 88.4358 53.35 89.0394 53.3335C88.4193 54.6585 87.4673 56.7943 87.4673 57.5283C87.4673 57.7839 87.5962 57.9433 87.802 57.9433C88.1834 57.9433 88.9324 57.1929 89.4564 56.3957L90.3646 57.2891V57.2864Z" fill="#17542A" style="fill:#17542A;fill:color(display-p3 0.0902 0.3294 0.1647);fill-opacity:1;"></path></g></g><g id="Group_4"><path id="Vector_22" d="M41.8457 68.9827V66.3878H42.5673V68.9827H41.8457Z" fill="#17542A" style="fill:#17542A;fill:color(display-p3 0.0902 0.3294 0.1647);fill-opacity:1;"></path><path id="Vector_23" d="M44.9926 69.0213H44.8993L43.7387 67.8502V68.9828H43.083V66.3494H43.179L44.3396 67.5149V66.3878H44.9926V69.0213Z" fill="#17542A" style="fill:#17542A;fill:color(display-p3 0.0902 0.3294 0.1647);fill-opacity:1;"></path><path id="Vector_24" d="M45.7035 69.0103C45.5992 69.0103 45.495 69.0075 45.3797 68.9993L45.4072 68.433C45.5197 68.4522 45.6569 68.4687 45.7611 68.4687C46.1562 68.4687 46.2879 68.3643 46.2879 68.2406C46.2879 68.1169 46.1836 68.0317 45.8983 67.8667C45.5937 67.6963 45.3633 67.4819 45.3633 67.1273C45.3633 66.6737 45.7474 66.3604 46.4882 66.3604C46.6116 66.3604 46.7351 66.3686 46.8613 66.3823L46.8339 66.9376C46.7186 66.9184 46.5869 66.9074 46.4607 66.9074C46.1288 66.9074 46.0218 66.9733 46.0218 67.0723C46.0218 67.1905 46.1452 67.2565 46.3867 67.3994C46.7186 67.5836 46.9436 67.7925 46.9436 68.1774C46.9436 68.7216 46.4607 69.0103 45.698 69.0103H45.7035Z" fill="#17542A" style="fill:#17542A;fill:color(display-p3 0.0902 0.3294 0.1647);fill-opacity:1;"></path><path id="Vector_25" d="M48.2877 68.2158H47.9721V68.9827H47.3164V66.3878H48.2931C48.894 66.3878 49.1958 66.7424 49.1958 67.2812C49.1958 67.7705 48.9077 68.2158 48.2877 68.2158ZM48.1642 66.9074H47.9721V67.6935H48.1614C48.4001 67.6935 48.5291 67.5396 48.5291 67.2785C48.5291 67.0393 48.4029 66.9101 48.1642 66.9101V66.9074Z" fill="#17542A" style="fill:#17542A;fill:color(display-p3 0.0902 0.3294 0.1647);fill-opacity:1;"></path><path id="Vector_26" d="M49.5576 68.9827V66.3878H50.2133V68.9827H49.5576Z" fill="#17542A" style="fill:#17542A;fill:color(display-p3 0.0902 0.3294 0.1647);fill-opacity:1;"></path><path id="Vector_27" d="M51.9647 68.9827L51.523 68.0042H51.3803V68.9827H50.7246V66.3878H51.7013C52.2391 66.3878 52.593 66.6655 52.593 67.1685C52.593 67.5066 52.3818 67.7705 52.1129 67.8667L52.6973 68.9827H51.9675H51.9647ZM51.5861 66.9046H51.3776V67.5094H51.5148C51.7837 67.5094 51.9291 67.4104 51.9291 67.1905C51.9291 67.0008 51.7919 66.9046 51.5834 66.9046H51.5861Z" fill="#17542A" style="fill:#17542A;fill:color(display-p3 0.0902 0.3294 0.1647);fill-opacity:1;"></path><path id="Vector_28" d="M53.0205 68.9827V66.3878H54.5762V66.9156H53.6762V67.3389H54.5762V67.8392H53.6762V68.455H54.5762V68.9827H53.0205Z" fill="#17542A" style="fill:#17542A;fill:color(display-p3 0.0902 0.3294 0.1647);fill-opacity:1;"></path><path id="Vector_29" d="M55.8249 68.9827H54.999V66.3878H55.8249C56.6754 66.3878 56.9827 66.9651 56.9827 67.655C56.9827 68.4247 56.5602 68.9827 55.8249 68.9827ZM55.8166 66.9184H55.6465V68.4522H55.8166C56.1514 68.4522 56.316 68.1333 56.316 67.6578C56.316 67.1822 56.1157 66.9184 55.8166 66.9184Z" fill="#17542A" style="fill:#17542A;fill:color(display-p3 0.0902 0.3294 0.1647);fill-opacity:1;"></path><path id="Vector_30" d="M59.4348 68.9827H58.4307V66.3878H59.4486C59.8354 66.3878 60.2524 66.5528 60.2524 67.0118C60.2524 67.2894 60.0439 67.5121 59.8574 67.5368C60.107 67.5753 60.3485 67.7952 60.3485 68.1498C60.3485 68.6281 60.0412 68.9855 59.4348 68.9855V68.9827ZM59.3114 66.9074H59.0891V67.3279H59.3114C59.4925 67.3279 59.5967 67.251 59.5967 67.1053C59.5967 66.9678 59.4732 66.9101 59.3114 66.9101V66.9074ZM59.3031 67.8227H59.0864V68.4632H59.3059C59.5391 68.4632 59.679 68.3478 59.679 68.1251C59.679 67.9134 59.5254 67.8255 59.3031 67.8255V67.8227Z" fill="#17542A" style="fill:#17542A;fill:color(display-p3 0.0902 0.3294 0.1647);fill-opacity:1;"></path><path id="Vector_31" d="M61.4628 68.9827H60.733L61.1143 68.1278L60.4531 66.3878H61.15L61.4765 67.3884L61.8249 66.3878H62.5163L61.4628 68.9827Z" fill="#17542A" style="fill:#17542A;fill:color(display-p3 0.0902 0.3294 0.1647);fill-opacity:1;"></path><path id="Vector_32" d="M65.7729 69.0213H65.6796L64.519 67.8502V68.9828H63.8633V66.3494H63.9593L65.1199 67.5149V66.3878H65.7729V69.0213Z" fill="#17542A" style="fill:#17542A;fill:color(display-p3 0.0902 0.3294 0.1647);fill-opacity:1;"></path><path id="Vector_33" d="M67.5234 68.9828L67.4273 68.5292H66.8539L66.7606 68.9828H66.0967L66.7881 66.3576H67.5097L68.2011 68.9828H67.5206H67.5234ZM67.1393 67.0503L66.9472 68.0097H67.3341L67.1393 67.0503Z" fill="#17542A" style="fill:#17542A;fill:color(display-p3 0.0902 0.3294 0.1647);fill-opacity:1;"></path><path id="Vector_34" d="M69.2907 66.9431V68.9827H68.6322V66.9431H68.1055V66.3878H69.8148V66.9431H69.288H69.2907Z" fill="#17542A" style="fill:#17542A;fill:color(display-p3 0.0902 0.3294 0.1647);fill-opacity:1;"></path><path id="Vector_35" d="M72.0144 68.2598C72.0144 68.6886 71.7648 69.0542 71.0624 69.0542C70.36 69.0542 70.1104 68.6859 70.1104 68.2598V66.3878H70.7688V68.1911C70.7688 68.367 70.8539 68.5292 71.0679 68.5292C71.2956 68.5292 71.3669 68.378 71.3669 68.1938V66.3878H72.0172V68.2598H72.0144Z" fill="#17542A" style="fill:#17542A;fill:color(display-p3 0.0902 0.3294 0.1647);fill-opacity:1;"></path><path id="Vector_36" d="M73.7265 68.9827L73.2847 68.0042H73.1421V68.9827H72.4863V66.3878H73.4631C74.0008 66.3878 74.3547 66.6655 74.3547 67.1685C74.3547 67.5066 74.1435 67.7705 73.8746 67.8667L74.459 68.9827H73.7292H73.7265ZM73.3506 66.9046H73.1421V67.5094H73.2792C73.5481 67.5094 73.6935 67.4104 73.6935 67.1905C73.6935 67.0008 73.5563 66.9046 73.3478 66.9046H73.3506Z" fill="#17542A" style="fill:#17542A;fill:color(display-p3 0.0902 0.3294 0.1647);fill-opacity:1;"></path><path id="Vector_37" d="M74.7832 68.9827V66.3878H76.3388V66.9156H75.4389V67.3389H76.3388V67.8392H75.4389V68.455H76.3388V68.9827H74.7832Z" fill="#17542A" style="fill:#17542A;fill:color(display-p3 0.0902 0.3294 0.1647);fill-opacity:1;"></path><path id="Vector_38" d="M46.6878 73.6283C45.9086 73.6283 45.5547 73.0428 45.5547 72.2731C45.5547 71.6574 45.8153 70.9784 46.8881 70.9784C47.0116 70.9784 47.135 70.9811 47.2557 70.9949L47.2365 71.5447C47.1378 71.5419 47.0363 71.5364 46.9485 71.5364C46.3695 71.5364 46.2214 71.8553 46.2214 72.3226C46.2214 72.7129 46.3064 73.0978 46.6165 73.0978C46.6521 73.0978 46.6906 73.095 46.7153 73.0813V72.1989H47.3408V73.5156C47.1405 73.5843 46.9155 73.6283 46.6823 73.6283H46.6878Z" fill="#17542A" style="fill:#17542A;fill:color(display-p3 0.0902 0.3294 0.1647);fill-opacity:1;"></path><path id="Vector_39" d="M49.6482 72.878C49.6482 73.3068 49.3986 73.6724 48.6962 73.6724C47.9938 73.6724 47.7441 73.304 47.7441 72.878V71.006H48.4026V72.8092C48.4026 72.9852 48.4877 73.1473 48.7017 73.1473C48.9294 73.1473 49.0007 72.9962 49.0007 72.812V71.006H49.651V72.878H49.6482Z" fill="#17542A" style="fill:#17542A;fill:color(display-p3 0.0902 0.3294 0.1647);fill-opacity:1;"></path><path id="Vector_40" d="M50.1201 73.6009V71.006H50.7759V73.6009H50.1201Z" fill="#17542A" style="fill:#17542A;fill:color(display-p3 0.0902 0.3294 0.1647);fill-opacity:1;"></path><path id="Vector_41" d="M52.112 73.6009H51.2861V71.006H52.112C52.9625 71.006 53.2698 71.5832 53.2698 72.2732C53.2698 73.0429 52.8473 73.6009 52.112 73.6009ZM52.1037 71.5365H51.9336V73.0704H52.1037C52.4385 73.0704 52.6031 72.7515 52.6031 72.276C52.6031 71.8004 52.4028 71.5365 52.1037 71.5365Z" fill="#17542A" style="fill:#17542A;fill:color(display-p3 0.0902 0.3294 0.1647);fill-opacity:1;"></path><path id="Vector_42" d="M53.6436 73.6008V71.0059H55.1992V71.5337H54.2993V71.957H55.1992V72.4573H54.2993V73.0731H55.1992V73.6008H53.6436Z" fill="#17542A" style="fill:#17542A;fill:color(display-p3 0.0902 0.3294 0.1647);fill-opacity:1;"></path><path id="Vector_43" d="M56.4469 73.6009H55.6211V71.006H56.4469C57.2975 71.006 57.6048 71.5832 57.6048 72.2732C57.6048 73.0429 57.1822 73.6009 56.4469 73.6009ZM56.4387 71.5365H56.2686V73.0704H56.4387C56.7734 73.0704 56.938 72.7515 56.938 72.276C56.938 71.8004 56.7378 71.5365 56.4387 71.5365Z" fill="#17542A" style="fill:#17542A;fill:color(display-p3 0.0902 0.3294 0.1647);fill-opacity:1;"></path><path id="Vector_44" d="M60.0579 73.6008H59.0537V71.0059H60.0716C60.4585 71.0059 60.8755 71.1708 60.8755 71.6299C60.8755 71.9075 60.667 72.1302 60.4804 72.1549C60.7301 72.1934 60.9715 72.4133 60.9715 72.7679C60.9715 73.2462 60.6642 73.6036 60.0579 73.6036V73.6008ZM59.9344 71.5255H59.7122V71.946H59.9344C60.1155 71.946 60.2198 71.8691 60.2198 71.7234C60.2198 71.5859 60.0963 71.5282 59.9344 71.5282V71.5255ZM59.9289 72.4408H59.7122V73.0813H59.9317C60.1649 73.0813 60.3048 72.9659 60.3048 72.7432C60.3048 72.5315 60.1512 72.4436 59.9289 72.4436V72.4408Z" fill="#17542A" style="fill:#17542A;fill:color(display-p3 0.0902 0.3294 0.1647);fill-opacity:1;"></path><path id="Vector_45" d="M62.0858 73.6009H61.356L61.7374 72.746L61.0762 71.006H61.7731L62.0995 72.0066L62.448 71.006H63.1394L62.0858 73.6009Z" fill="#17542A" style="fill:#17542A;fill:color(display-p3 0.0902 0.3294 0.1647);fill-opacity:1;"></path><path id="Vector_46" d="M66.2966 73.6696C65.3198 73.6696 64.3623 73.3068 64.3623 72.3034C64.3623 71.3001 65.4351 70.9373 66.2966 70.9373C66.8892 70.9373 67.3995 71.0225 67.844 71.2341L67.6986 71.7729C67.2953 71.6025 66.8535 71.498 66.3597 71.498C65.5695 71.498 65.1141 71.7839 65.1141 72.3117C65.1141 72.8395 65.5915 73.1171 66.3597 73.1171C66.6093 73.1171 66.8782 73.0869 67.1005 73.0236V72.2622H67.822V73.414C67.4407 73.5652 66.9276 73.6724 66.2938 73.6724L66.2966 73.6696Z" fill="#17542A" style="fill:#17542A;fill:color(display-p3 0.0902 0.3294 0.1647);fill-opacity:1;"></path><path id="Vector_47" d="M69.1887 73.6696C68.4616 73.6696 68.1982 73.0236 68.1982 72.3034C68.1982 71.5832 68.4699 70.9372 69.1887 70.9372C69.9075 70.9372 70.1791 71.5694 70.1791 72.3034C70.1791 73.0373 69.902 73.6696 69.1887 73.6696ZM69.1887 71.4705C68.9198 71.4705 68.854 71.8058 68.854 72.3034C68.854 72.8009 68.9226 73.1363 69.1887 73.1363C69.4548 73.1363 69.5234 72.8009 69.5234 72.3034C69.5234 71.7729 69.4493 71.4705 69.1887 71.4705Z" fill="#17542A" style="fill:#17542A;fill:color(display-p3 0.0902 0.3294 0.1647);fill-opacity:1;"></path><path id="Vector_48" d="M71.3864 73.6008H70.5605V71.0059H71.3864C72.2369 71.0059 72.5442 71.5832 72.5442 72.2732C72.5442 73.0428 72.1217 73.6008 71.3864 73.6008ZM71.3782 71.5364H71.2081V73.0703H71.3782C71.7129 73.0703 71.8775 72.7514 71.8775 72.2759C71.8775 71.8003 71.6772 71.5364 71.3782 71.5364Z" fill="#17542A" style="fill:#17542A;fill:color(display-p3 0.0902 0.3294 0.1647);fill-opacity:1;"></path></g><g id="Group_5"><g id="Group_6"><path id="Vector_49" d="M28.457 31.1914C29.1045 31.0925 29.8289 31.0128 30.4818 30.9495C30.7068 30.9275 30.9291 30.8918 31.1513 30.9303L37.0364 30.8946H36.998L39.695 30.5867L39.7636 30.5784L39.8294 30.5949L41.3247 30.8258L41.2177 30.8148L43.9147 30.6939H43.9723L44.0299 30.7049L46.7132 31.4086C46.9108 31.3866 47.668 31.678 47.9973 31.7659C48.4335 31.9089 48.8697 32.0573 49.3032 32.214C48.642 32.2332 47.8985 32.2332 47.2345 32.2223C47.0041 32.2223 46.7736 32.2278 46.5541 32.1645L46.5184 32.1563L43.8351 31.4526L43.9504 31.4636L41.2561 31.5845C41.2205 31.59 41.182 31.5845 41.1491 31.5735L39.6538 31.3426L39.7883 31.3509C39.7691 31.3509 37.0885 31.6615 37.0721 31.6615H37.0529L31.1431 31.7027C30.9181 31.7192 30.6931 31.6642 30.4681 31.6203C29.8206 31.4966 29.0963 31.3454 28.4598 31.1859L28.457 31.1914Z" fill="#17542A" style="fill:#17542A;fill:color(display-p3 0.0902 0.3294 0.1647);fill-opacity:1;"></path><path id="Vector_50" d="M43.1049 26.8454C43.7195 26.7355 44.2325 26.8702 44.762 27.1616L46.6277 28.0055L46.5646 27.9835L48.1449 28.3738L48.9351 28.5717C49.1711 28.7504 49.407 28.9263 49.6347 29.1407C49.3357 29.226 49.0449 29.2699 48.7513 29.3194L47.9611 29.1242L46.3808 28.7339C46.3643 28.7312 46.3314 28.7202 46.3149 28.7119L44.4493 27.868C43.8786 27.6701 40.7755 26.8179 40.4463 26.2874L43.1049 26.8454Z" fill="#17542A" style="fill:#17542A;fill:color(display-p3 0.0902 0.3294 0.1647);fill-opacity:1;"></path><path id="Vector_51" d="M39.5469 20.6C40.049 20.8557 40.5318 21.1443 41.0092 21.4357C41.1711 21.5594 41.5607 21.9635 41.7308 22.1064L41.5388 22.0102L44.1562 22.4995L44.2714 22.5215L44.3565 22.604L46.2386 24.4622L46.0328 24.3577L48.6722 24.814L48.8094 24.8388L48.9 24.9432C49.0426 25.1164 49.424 25.5507 49.5694 25.7157C49.852 26.2215 50.1291 26.7355 50.3788 27.2633C49.8959 26.9362 49.4295 26.5816 48.974 26.227C48.8423 26.0593 48.461 25.6195 48.3128 25.4463L48.5405 25.5755L45.9012 25.1192L45.7832 25.0999L45.6981 25.0147L43.816 23.1565L44.0163 23.2609L41.3988 22.7716L41.2891 22.7524C41.2232 22.6947 40.8007 22.2933 40.7266 22.2301C40.6471 22.1531 40.5483 22.0982 40.4879 22.0075C40.1642 21.5539 39.8432 21.0893 39.5496 20.6083L39.5469 20.6Z" fill="#17542A" style="fill:#17542A;fill:color(display-p3 0.0902 0.3294 0.1647);fill-opacity:1;"></path><path id="Vector_52" d="M47.7178 20.5698C48.3104 20.6247 48.7439 20.8721 49.1472 21.2845L50.3242 22.2933C50.6782 22.7221 51.4491 23.7914 51.7839 24.223C52.0088 25.2071 52.061 25.1879 51.1665 24.6876C50.873 24.2945 50.0691 23.2252 49.7645 22.8211L49.8221 22.8816L48.6451 21.8727C48.176 21.5401 47.8632 21.147 47.7178 20.5698Z" fill="#17542A" style="fill:#17542A;fill:color(display-p3 0.0902 0.3294 0.1647);fill-opacity:1;"></path><path id="Vector_53" d="M48.8672 15.0831C49.7479 15.6246 50.1951 16.1469 50.7438 16.999L51.6849 18.9947L51.6438 18.9205L53.1281 21.0124C53.1281 21.0124 53.1528 21.0481 53.1582 21.0619L53.4463 21.6309C53.8003 22.1999 53.8716 22.8514 53.9649 23.5138C53.6356 23.2032 53.3421 22.8761 53.0485 22.549C52.8784 22.2274 52.6424 21.7408 52.4723 21.411L52.5025 21.4604L51.0182 19.3685C51.0045 19.3521 50.9825 19.3163 50.977 19.2943L50.9743 18.8573L50.0799 17.3811C49.5119 16.6912 50.0113 17.5268 49.8083 16.6417L48.8699 15.0858L48.8672 15.0831Z" fill="#17542A" style="fill:#17542A;fill:color(display-p3 0.0902 0.3294 0.1647);fill-opacity:1;"></path><path id="Vector_54" d="M54.5139 16.6307C55.005 16.9715 55.2547 17.4059 55.4001 17.9639L55.9241 19.429C55.9296 19.4428 55.9378 19.4675 55.9378 19.4812L56.2533 20.9986L56.4097 21.7573C56.3466 22.0349 56.289 22.3098 56.1902 22.5957C55.9872 22.3731 55.8226 22.1449 55.6552 21.9167L55.4961 21.1581L55.1806 19.6407L55.1943 19.6929L54.6703 18.2278C54.4261 17.7027 54.3465 17.2079 54.5084 16.6334L54.5139 16.6307Z" fill="#17542A" style="fill:#17542A;fill:color(display-p3 0.0902 0.3294 0.1647);fill-opacity:1;"></path></g><g id="Group_7"><path id="Vector_55" d="M85.041 31.1914C84.3935 31.0924 83.6692 31.0127 83.0162 30.9495C82.7912 30.9275 82.569 30.8917 82.3468 30.9302L79.6662 30.8945H79.7047L77.0076 30.5866L76.9391 30.5784L76.8732 30.5949L75.3779 30.8258L75.4849 30.8148L72.7879 30.6938H72.7303L72.6727 30.7048L69.9894 31.4085C69.7919 31.3865 69.0346 31.6779 68.7054 31.7659C68.2691 31.9088 67.8329 32.0573 67.3994 32.2139C68.0606 32.2332 68.8042 32.2332 69.4681 32.2222C69.6986 32.2222 69.929 32.2277 70.1485 32.1645L70.1842 32.1562L72.8675 31.4525L72.7523 31.4635L75.4465 31.5845C75.4822 31.59 75.5206 31.5845 75.5535 31.5735L77.0488 31.3426L76.9144 31.3508C76.9336 31.3508 79.6141 31.6614 79.6306 31.6614H79.6498L82.355 31.7027C82.58 31.7191 82.805 31.6642 83.0299 31.6202C83.6774 31.4965 84.4018 31.3453 85.0383 31.1859L85.041 31.1914Z" fill="#17542A" style="fill:#17542A;fill:color(display-p3 0.0902 0.3294 0.1647);fill-opacity:1;"></path><path id="Vector_56" d="M75.0794 26.2077C74.4648 26.0977 72.0998 27.0461 71.5703 27.3375L70.0695 28.0082L70.1326 27.9862L68.5523 28.3765L67.7621 28.5745C67.5262 28.7531 67.2902 28.9291 67.0625 29.1435C67.3616 29.2287 67.6524 29.2727 67.946 29.3221L68.7361 29.127L70.3165 28.7366C70.3329 28.7339 70.3658 28.7229 70.3823 28.7146L71.8831 28.0439C72.4538 27.846 77.3347 26.8179 77.6639 26.2874L75.0767 26.2077H75.0794Z" fill="#17542A" style="fill:#17542A;fill:color(display-p3 0.0902 0.3294 0.1647);fill-opacity:1;"></path><path id="Vector_57" d="M77.1532 20.6C76.6511 20.8556 76.1682 21.1443 75.6908 21.4356C75.529 21.5593 75.1394 21.9634 74.9693 22.1064L75.1613 22.0101L72.5439 22.4994L72.4286 22.5214L72.3436 22.6039L70.4614 24.4621L70.6672 24.3577L68.0278 24.814L67.8907 24.8387L67.8001 24.9432C67.6574 25.1164 67.2761 25.5507 67.1307 25.7156C66.8481 26.2214 66.571 26.7354 66.3213 27.2632C66.8042 26.9361 67.2706 26.5815 67.726 26.2269C67.8577 26.0592 68.2391 25.6194 68.3873 25.4462L68.1595 25.5754L70.7989 25.1191L70.9169 25.0999L71.0019 25.0147L72.8841 23.1564L72.6838 23.2609L75.3012 22.7716L75.411 22.7523C75.4768 22.6946 75.8993 22.2933 75.9734 22.2301C76.053 22.1531 76.1518 22.0981 76.2121 22.0074C76.5359 21.5538 76.8569 21.0893 77.1505 20.6082L77.1532 20.6Z" fill="#17542A" style="fill:#17542A;fill:color(display-p3 0.0902 0.3294 0.1647);fill-opacity:1;"></path><path id="Vector_58" d="M68.9831 20.5698C68.3905 20.6247 67.957 20.8721 67.5537 21.2845L66.3766 22.2933C66.0227 22.7221 65.2517 23.7914 64.917 24.223C64.692 25.2071 64.6399 25.1879 65.5343 24.6876C65.8279 24.2945 66.6318 23.2252 66.9363 22.8211L66.8787 22.8816L68.0557 21.8727C68.5249 21.5401 68.8377 21.147 68.9831 20.5698Z" fill="#17542A" style="fill:#17542A;fill:color(display-p3 0.0902 0.3294 0.1647);fill-opacity:1;"></path><path id="Vector_59" d="M68.1186 14.9594C67.2379 15.5009 66.7906 16.0232 66.2419 16.8753L65.0182 18.9947L65.0594 18.9205L63.5751 21.0124C63.5751 21.0124 63.5504 21.0481 63.5449 21.0618L63.2568 21.6308C62.9029 22.1999 62.8316 22.8513 62.7383 23.5138C63.0675 23.2032 63.3611 22.8761 63.6547 22.549C63.8248 22.2274 64.0607 21.7408 64.2308 21.4109L64.2006 21.4604L65.685 19.3685C65.6987 19.352 65.7206 19.3163 65.7261 19.2943L66.0114 18.7308L66.9059 17.2547C67.4738 16.5647 66.9745 17.4003 67.1775 16.5152L68.1158 14.9594H68.1186Z" fill="#17542A" style="fill:#17542A;fill:color(display-p3 0.0902 0.3294 0.1647);fill-opacity:1;"></path><path id="Vector_60" d="M62.1869 16.6307C61.6958 16.9715 61.4461 17.4059 61.3007 17.9639L60.7766 19.429C60.7712 19.4428 60.7629 19.4675 60.7629 19.4812L60.4474 20.9986L60.291 21.7573C60.3541 22.0349 60.4117 22.3098 60.5105 22.5957C60.7135 22.3731 60.8782 22.1449 61.0455 21.9167L61.2046 21.1581L61.5202 19.6407L61.5064 19.6929L62.0305 18.2278C62.2747 17.7027 62.3542 17.2079 62.1924 16.6334L62.1869 16.6307Z" fill="#17542A" style="fill:#17542A;fill:color(display-p3 0.0902 0.3294 0.1647);fill-opacity:1;"></path><path id="Vector_61" d="M58.7903 9.31042C58.6806 9.85745 58.6065 10.4127 58.5379 10.9625C58.5187 11.0724 58.5543 11.1797 58.5626 11.2869C58.5653 11.3171 58.6147 11.9961 58.6257 11.9961L57.948 14.58V14.3848L57.2374 16.9935L57.21 17.098L57.2401 17.2024L57.9864 19.7891L57.9699 19.6764L57.9617 20.3251C57.948 20.9794 58.1867 21.6308 58.3211 22.2796C58.472 21.6363 58.7299 20.9904 58.7354 20.3361C58.7299 20.2427 58.7629 19.6434 58.7299 19.5747L57.9837 16.988V17.1969L58.697 14.5882L58.7244 14.492L58.6998 14.3931C58.7135 14.4618 59.3253 11.5617 59.3884 11.8724L59.3363 11.2236C59.3253 11.1164 59.3445 11.0065 59.3088 10.8993C59.1525 10.3687 58.9906 9.83271 58.7958 9.31042H58.7903Z" fill="#17542A" style="fill:#17542A;fill:color(display-p3 0.0902 0.3294 0.1647);fill-opacity:1;"></path></g></g><path id="Vector_62" d="M65.0273 31.5322C62.4784 31.2573 63.0656 32.9149 61.7953 32.8874C60.7527 32.8682 59.8034 32.4833 59.0681 31.8483C59.6772 32.607 60.0256 33.5746 60.0037 34.6137C59.9817 35.8837 58.2724 34.567 58.5248 37.7721C58.5248 37.7804 58.5248 37.7886 58.5248 37.7941C58.4919 37.7611 58.459 37.7309 58.4261 37.6952C57.6277 36.8925 57.1421 35.7765 57.164 34.5587C57.1832 33.5196 57.5673 32.5658 58.2066 31.8346C57.4439 32.4366 56.4808 32.7857 55.4437 32.7664C54.1762 32.7445 53.054 32.1809 52.2748 31.2986C52.2748 31.2986 52.2693 31.2903 52.2666 31.2876C52.2666 31.2876 52.2748 31.2876 52.2776 31.2876C55.1008 31.8483 54.231 29.8994 55.4986 29.9214C56.5357 29.9406 57.4823 30.3255 58.2176 30.9604C57.6167 30.2018 57.2683 29.2397 57.2902 28.2033C57.3122 26.9279 59.54 27.2247 58.7745 25.0146C59.6251 25.8283 60.1518 26.9801 60.1271 28.2583C60.1079 29.3001 59.7238 30.2457 59.09 30.9769C59.8473 30.3749 60.813 30.0258 61.8501 30.0451C63.1204 30.0698 64.2508 30.6416 65.0245 31.5322H65.0273Z" fill="#17542A" style="fill:#17542A;fill:color(display-p3 0.0902 0.3294 0.1647);fill-opacity:1;"></path></g><defs><clipPath id="clip0_22_3070"><rect width="119" height="89" fill="white" style="fill:white;fill-opacity:1;"></rect></clipPath></defs></svg>