<svg xmlns="http://www.w3.org/2000/svg" width="137" height="103" viewBox="0 0 137 103" fill="none"><g id="Layer_1" clip-path="url(#clip0_68_5115)"><path id="Vector" d="M58.0742 41.1655C58.0742 41.1655 61.8362 35.6428 66.1067 35.6428C70.3771 35.6428 70.8952 28.4786 70.8952 28.4786C70.8952 28.4786 63.6903 25.6759 60.2095 33.7754C60.2095 33.7754 58.4943 37.8506 58.0742 41.1687V41.1655Z" fill="#FFD494" style="fill:#FFD494;fill:color(display-p3 1.0000 0.8312 0.5793);fill-opacity:1;"></path><path id="Vector_2" d="M68.8365 0L10.7932 32.1372C-3.34491 39.9663 -3.65446 60.3169 10.2404 68.5755L68.1574 103L126.523 69.3549C140.525 61.284 140.487 40.9302 126.453 32.9134L68.8365 0Z" fill="#C5942E" style="fill:#C5942E;fill:color(display-p3 0.7725 0.5804 0.1804);fill-opacity:1;"></path><path id="Vector_3" d="M68.1799 99.4974L12.1202 66.1768C6.47888 62.8237 3.17178 56.8843 3.26969 50.2863C3.37077 43.6884 6.85792 37.8539 12.5972 34.6758L68.8116 3.55029L124.609 35.4234C130.307 38.6779 133.715 44.5601 133.728 51.158C133.741 57.756 130.355 63.6509 124.669 66.9276L68.1767 99.4942L68.1799 99.4974ZM68.8021 5.23319L13.3016 35.9611C8.02662 38.8815 4.82059 44.2451 4.72899 50.3054C4.63739 56.3689 7.67601 61.8248 12.8625 64.9075L68.1894 97.7923L123.946 65.6519C129.17 62.6392 132.281 57.2215 132.269 51.1612C132.256 45.1009 129.123 39.6927 123.889 36.7023L68.8021 5.23319Z" fill="#FFD494" style="fill:#FFD494;fill:color(display-p3 1.0000 0.8312 0.5793);fill-opacity:1;"></path><g id="Group"><g id="Group_2"><path id="Vector_4" d="M21.459 51.8804C21.4558 47.5443 24.2891 41.6526 28.487 41.6494C31.0171 41.6494 32.3563 44.0067 31.5161 46.8317H29.3714C30.0284 44.9675 29.3714 43.66 28.1774 43.66C25.7579 43.66 23.6006 48.241 23.6037 51.7468C23.6037 53.3724 24.2481 54.3681 25.5305 54.365C26.7402 54.365 27.691 53.2929 28.4428 51.7786L30.24 52.5516C29.4188 54.6576 27.7163 56.4105 25.2241 56.4137C23.2626 56.4137 21.4653 54.9599 21.4621 51.8772L21.459 51.8804Z" fill="#FFF9F0" style="fill:#FFF9F0;fill:color(display-p3 1.0000 0.9762 0.9427);fill-opacity:1;"></path><path id="Vector_5" d="M34.7279 53.1243C34.7279 51.7023 36.0798 50.1339 36.0798 49.2654C36.0798 48.9696 35.9692 48.766 35.6407 48.7692C34.1562 48.7692 32.7285 52.5358 32.182 54.5686H30.2773C31.3544 51.3778 32.9085 46.7618 34.2067 42.9761H36.0766C35.3817 44.9135 34.7247 46.8318 34.0835 48.7724C34.7405 47.6462 35.7323 47.0736 36.6294 47.0704C37.5264 47.0672 38.095 47.678 38.1171 48.5815C38.155 49.9462 36.6736 51.7946 36.6736 52.5867C36.6736 52.8253 36.8221 52.9748 37.04 52.9748C37.7728 52.9748 38.891 51.5146 39.8228 49.6313L40.6314 50.5157C39.9365 52.0841 38.215 54.7436 36.402 54.7468C35.3028 54.7468 34.7342 54.066 34.7342 53.1243H34.7279Z" fill="#FFF9F0" style="fill:#FFF9F0;fill:color(display-p3 1.0000 0.9762 0.9427);fill-opacity:1;"></path><path id="Vector_6" d="M48.3806 49.9939C47.9794 50.7701 46.6244 51.6577 45.2314 51.435C44.7007 53.2452 43.3109 54.7404 41.3873 54.7436C39.8301 54.7436 38.8762 53.6015 38.873 52.0522C38.873 49.4881 40.5724 47.0671 43.0109 47.064C44.6218 47.064 45.4683 48.4096 45.4683 49.7744V49.9207C46.258 50.1243 47.0445 49.8444 47.5214 49.0523L48.3837 49.9939H48.3806ZM43.5605 49.9239C43.5605 49.205 43.2667 48.6864 42.6982 48.6896C41.7095 48.6896 40.7556 50.4457 40.7588 51.7913C40.7588 52.6216 41.1094 53.0448 41.64 53.0448C42.5939 53.0448 43.5636 51.3269 43.5605 49.9239Z" fill="#FFF9F0" style="fill:#FFF9F0;fill:color(display-p3 1.0000 0.9762 0.9427);fill-opacity:1;"></path><path id="Vector_7" d="M61.9784 50.4965C60.6802 53.3024 59.363 54.7435 56.4128 54.7467C55.1304 54.7467 53.6996 54.104 53.15 52.8665C52.7646 52.997 52.3793 53.051 51.9781 53.051C51.2642 54.0468 50.2219 54.7308 48.9205 54.7339C47.3633 54.7339 46.4094 53.5919 46.4062 52.0426C46.4062 49.4785 48.1056 47.0575 50.5441 47.0543C52.155 47.0543 53.0015 48.4 53.0015 49.7648C53.0015 50.2802 52.9289 50.7987 52.8025 51.2982C54.3597 50.7064 55.2189 48.5845 55.62 46.8857H57.7079C58.2038 48.0278 59.1956 49.7234 59.1956 51.0914C59.1767 51.8835 58.9398 52.6057 58.4281 53.086C59.2525 52.6248 60.2948 51.5718 61.1919 49.6153L61.9815 50.4997L61.9784 50.4965ZM51.0937 49.9175C51.0937 49.1985 50.7999 48.68 50.2314 48.6832C49.2427 48.6832 48.2888 50.4392 48.292 51.7849C48.292 52.6152 48.6426 53.0383 49.1732 53.0383C50.1271 53.0383 51.0968 51.3204 51.0937 49.9175ZM57.3636 51.5177C57.3636 50.541 56.9972 49.5994 56.5929 48.804C56.1728 50.2452 55.421 51.3713 54.5082 52.1094C54.7293 52.6088 55.241 53.1974 56.0306 53.1974C56.874 53.1974 57.3478 52.3671 57.3668 51.5177H57.3636Z" fill="#FFF9F0" style="fill:#FFF9F0;fill:color(display-p3 1.0000 0.9762 0.9427);fill-opacity:1;"></path><path id="Vector_8" d="M67.5189 52.8921C66.6598 53.8528 65.1942 54.7213 63.5074 54.7213C61.6944 54.7213 60.2825 53.6906 60.2793 51.7723C60.2793 49.3545 61.887 47.0449 64.2687 47.0449C65.7153 47.0449 66.486 48.1138 66.486 49.2209C66.486 51.381 64.0349 52.399 62.184 51.9759C62.3135 52.7139 62.8441 53.1561 63.9086 53.1561C64.9541 53.1561 66.107 52.2495 66.7482 51.6037L67.5189 52.8953V52.8921ZM62.2219 50.7925C63.3937 50.9388 64.7488 50.2739 64.7677 49.2941C64.7867 48.871 64.5466 48.5751 64.1423 48.5751C63.2263 48.5751 62.4588 49.574 62.2219 50.7925Z" fill="#FFF9F0" style="fill:#FFF9F0;fill:color(display-p3 1.0000 0.9762 0.9427);fill-opacity:1;"></path><path id="Vector_9" d="M82.683 41.7864C81.0373 46.5488 79.319 51.3684 77.8218 56.1848H75.3107C75.1243 52.6632 74.9759 49.062 74.9348 45.5371C73.7472 49.062 72.6132 52.6631 71.5172 56.188H69.502C71.075 51.3906 72.6638 46.5901 74.3442 41.7896H76.7068C76.7479 45.5339 76.8616 49.466 77.029 53.2485C78.163 49.4628 79.477 45.5307 80.6646 41.7832H82.6798L82.683 41.7864Z" fill="#FFF9F0" style="fill:#FFF9F0;fill:color(display-p3 1.0000 0.9762 0.9427);fill-opacity:1;"></path><path id="Vector_10" d="M90.9023 50.4712C90.2074 52.0396 88.4859 54.6991 86.7265 54.7023C85.8453 54.7023 85.3525 54.0947 85.242 53.468C84.8408 54.1137 84.1807 54.7055 83.1541 54.7055C81.8906 54.7055 81.082 53.6556 81.082 52.03C81.082 49.5582 82.7814 47.0259 84.8535 47.0259C85.5863 47.0259 86.3001 47.4872 86.5781 47.9834L86.8339 47.2072H88.7038C87.0961 51.6355 86.6191 52.9271 87.3172 52.9271C88.0153 52.9271 89.165 51.5242 90.1 49.5836L90.9086 50.468L90.9023 50.4712ZM86.1359 49.3132C85.8958 48.9633 85.4947 48.7056 85.0367 48.7056C83.8269 48.7056 83.0214 50.4235 83.0246 51.8455C83.0246 52.4372 83.2836 52.9335 83.868 52.9335C84.6734 52.9335 85.4062 51.7501 86.1359 49.3132Z" fill="#FFF9F0" style="fill:#FFF9F0;fill:color(display-p3 1.0000 0.9762 0.9427);fill-opacity:1;"></path><path id="Vector_11" d="M95.355 50.4682C94.6601 52.0366 92.9386 54.6961 91.1792 54.6993C88.6334 54.6993 89.0693 51.9889 90.1843 48.6644H89.3978L89.8905 47.2074H90.696L91.6467 44.6401H93.5514C93.166 45.5977 92.8375 46.4471 92.5469 47.2042H94.0852L93.5735 48.6613H92.0163C90.8634 51.9125 90.8476 52.9273 91.7636 52.9273C92.4774 52.9273 93.6303 51.5244 94.5463 49.5838L95.355 50.4682Z" fill="#FFF9F0" style="fill:#FFF9F0;fill:color(display-p3 1.0000 0.9762 0.9427);fill-opacity:1;"></path><path id="Vector_12" d="M103.347 50.4617C102.652 52.0301 100.931 54.6896 99.1713 54.6928C98.3848 54.6928 97.7784 54.1393 97.7405 53.2008C97.2098 54.0311 96.3854 54.696 95.3589 54.6992C93.4163 54.6992 92.9551 52.5614 95.242 47.2073H97.1656C95.4663 51.1934 95.1378 52.9463 96.0885 52.9463C97.1151 52.9463 97.7721 51.3588 99.1998 47.2041H101.142C99.5883 51.5402 99.0197 52.924 99.7557 52.924C100.47 52.924 101.622 51.5211 102.538 49.5805L103.347 50.4649V50.4617Z" fill="#FFF9F0" style="fill:#FFF9F0;fill:color(display-p3 1.0000 0.9762 0.9427);fill-opacity:1;"></path><path id="Vector_13" d="M110.018 50.4549C109.342 52.0074 107.602 54.6828 105.861 54.686C104.743 54.686 104.156 53.8748 104.156 52.9331C104.156 51.7879 104.721 50.6076 105.435 49.0743C105.068 49.0552 104.629 49.0011 104.206 48.8898C103.458 50.6999 102.542 52.0838 101.591 53.229C100.694 54.3011 100.015 53.194 100.801 52.2714C102.099 50.7381 102.832 48.5239 103.325 46.5483H104.993C104.92 46.8251 104.847 47.0828 104.756 47.3596C105.653 47.525 107.175 47.5982 107.87 47.5791C107.175 49.1124 106.076 51.5843 106.079 52.4337C106.079 52.7295 106.228 52.9141 106.484 52.9141C107.182 52.9141 108.407 51.3425 109.209 49.5705L110.018 50.4549Z" fill="#FFF9F0" style="fill:#FFF9F0;fill:color(display-p3 1.0000 0.9762 0.9427);fill-opacity:1;"></path><path id="Vector_14" d="M115.54 52.8506C114.681 53.8113 113.216 54.6798 111.529 54.6798C109.716 54.6798 108.304 53.6491 108.301 51.7308C108.301 49.313 109.909 47.0034 112.29 47.0034C113.737 47.0034 114.508 48.0723 114.511 49.1794C114.511 51.3395 112.06 52.3575 110.209 51.9344C110.338 52.6724 110.869 53.1146 111.933 53.1146C112.979 53.1146 114.132 52.208 114.773 51.5622L115.544 52.8538L115.54 52.8506ZM110.24 50.751C111.412 50.8973 112.767 50.2324 112.786 49.2526C112.805 48.8295 112.565 48.5336 112.161 48.5336C111.245 48.5336 110.477 49.5325 110.24 50.751Z" fill="#FFF9F0" style="fill:#FFF9F0;fill:color(display-p3 1.0000 0.9762 0.9427);fill-opacity:1;"></path></g><g id="Group_3"><path id="Vector_15" d="M40.2326 68.5531L39.6293 70.3633L32.9961 70.3696C34.5881 65.6613 36.2116 60.6222 37.8573 55.9712H39.9104C38.4669 60.0305 37.0044 64.3888 35.6525 68.5595H40.2326V68.5531Z" fill="#FFF9F0" style="fill:#FFF9F0;fill:color(display-p3 1.0000 0.9762 0.9427);fill-opacity:1;"></path><path id="Vector_16" d="M46.9355 64.6528C46.2595 66.2212 44.5381 68.8807 42.7598 68.8839C39.9201 68.8839 41.272 65.2859 42.7155 61.392H44.6202C43.4673 64.5288 42.3523 67.112 43.341 67.112C44.0548 67.112 45.2109 65.709 46.1427 63.7684L46.9323 64.6528H46.9355ZM43.1388 59.4324C43.1388 58.5639 43.8527 57.7717 44.6392 57.7686C45.1888 57.7686 45.5931 58.1726 45.5931 58.7261C45.5931 59.5373 44.8603 60.4058 44.0927 60.4058C43.4863 60.4058 43.1388 59.9827 43.1388 59.4292V59.4324Z" fill="#FFF9F0" style="fill:#FFF9F0;fill:color(display-p3 1.0000 0.9762 0.9427);fill-opacity:1;"></path><path id="Vector_17" d="M54.6507 64.1278C54.2117 64.9581 52.746 65.8838 51.2615 65.5148C50.3834 67.4713 48.883 68.8933 47.2153 68.8965C45.8223 68.8965 45.2727 67.9007 45.2695 66.7014C45.2695 65.2253 45.9802 63.008 46.5835 61.3855H48.5261C47.9228 63.1384 47.1363 65.4448 47.1363 66.4787C47.1363 66.8668 47.2847 67.0704 47.6132 67.0704C48.5103 67.0704 50.2128 64.3727 50.137 61.3823H52.0985C52.1364 62.2858 52.0259 63.2084 51.789 64.0769C52.5597 64.2614 53.3083 63.9655 53.7852 63.1893L54.6476 64.1309L54.6507 64.1278Z" fill="#FFF9F0" style="fill:#FFF9F0;fill:color(display-p3 1.0000 0.9762 0.9427);fill-opacity:1;"></path><path id="Vector_18" d="M59.8607 67.0386C59.0016 67.9993 57.5359 68.8678 55.8492 68.8678C54.0362 68.8678 52.6243 67.8371 52.6211 65.9188C52.6211 63.501 54.2288 61.1914 56.6105 61.1914C58.0571 61.1914 58.8278 62.2603 58.8278 63.3674C58.8278 65.5275 56.3767 66.5455 54.5258 66.1224C54.6553 66.8604 55.1859 67.3026 56.2504 67.3026C57.3148 67.3026 58.4488 66.396 59.09 65.7502L59.8607 67.0418V67.0386ZM54.5605 64.9389C55.7324 65.0853 57.0874 64.4204 57.1064 63.4406C57.1253 63.0175 56.8853 62.7216 56.481 62.7216C55.565 62.7216 54.7974 63.7205 54.5605 64.9389Z" fill="#FFF9F0" style="fill:#FFF9F0;fill:color(display-p3 1.0000 0.9762 0.9427);fill-opacity:1;"></path><path id="Vector_19" d="M69.6992 64.058C71.0005 64.5002 71.9544 65.55 71.9544 66.7494C71.9544 69.148 69.3359 70.516 66.5689 70.5192C64.4811 70.5192 62.169 69.7302 61.3066 69.1194L62.2226 67.3665C62.5701 67.586 62.9744 67.7896 63.3787 67.9742C64.2758 65.2414 65.2613 62.5087 66.1204 59.776H68.2083L67.1122 63.005C69.6423 63.04 72.0587 61.987 72.0587 60.0114C72.0587 58.4622 70.4257 57.6509 68.7768 57.6509C67.3112 57.6509 65.7888 58.1154 64.6169 58.8344L63.8272 57.1197C65.1286 56.2512 67.0333 55.7517 68.7737 55.7485C71.7428 55.7485 74.1623 57.3487 74.1655 59.7665C74.1655 61.8343 72.245 63.6063 69.6992 64.0516V64.058ZM69.8097 66.7716C69.8097 65.6073 68.1767 64.742 66.5468 64.6529C66.0888 65.9827 65.6529 67.2934 65.2676 68.6231C65.7635 68.7345 66.2562 68.8076 66.7521 68.8076C68.4199 68.8076 69.8287 68.0473 69.8097 66.7748V66.7716Z" fill="#FFF9F0" style="fill:#FFF9F0;fill:color(display-p3 1.0000 0.9762 0.9427);fill-opacity:1;"></path><path id="Vector_20" d="M82.1255 64.6211C81.0642 66.743 79.9303 68.849 76.7242 68.8522C74.9112 68.8522 73.4993 67.8215 73.4961 65.9031C73.4961 63.4854 75.1038 61.1758 77.4855 61.1758C78.9321 61.1758 79.7028 62.2447 79.7028 63.3518C79.7028 65.5468 77.2517 66.5299 75.4008 66.1068C75.5303 66.8448 76.0609 67.287 77.1254 67.287C78.9037 67.287 79.984 66.3422 81.2822 63.7208L82.1255 64.6243V64.6211ZM75.4387 64.9392C76.6105 65.0665 77.9656 64.4398 77.9845 63.4249C78.0035 63.0018 77.7634 62.706 77.3591 62.706C76.4431 62.706 75.6756 63.7049 75.4387 64.9424V64.9392Z" fill="#FFF9F0" style="fill:#FFF9F0;fill:color(display-p3 1.0000 0.9762 0.9427);fill-opacity:1;"></path><path id="Vector_21" d="M91.053 64.6115C90.3581 66.1799 88.6398 68.8394 86.8804 68.8426C85.6517 68.8426 85.121 68.1968 85.0263 67.1661C84.2587 68.1077 83.3427 68.8458 82.4077 68.849C79.8619 68.849 80.2978 66.1385 81.4128 62.8141H80.6263L81.119 61.3571H81.9245L82.8752 58.7898H84.7799C84.3945 59.7474 84.066 60.5968 83.7754 61.3539H86.3971C86.6877 60.5013 87.0194 59.636 87.3289 58.7866H89.2336C88.8482 59.7442 88.5197 60.5936 88.2291 61.3507H89.7674L89.2747 62.8077H87.6985C86.5645 66.059 86.5487 67.0738 87.4647 67.0738C88.1786 67.0738 89.3126 65.6709 90.2475 63.7303L91.053 64.6147V64.6115ZM85.3548 64.5447C85.5001 63.9912 85.6833 63.4186 85.8854 62.8109H83.2448C82.0919 66.0622 82.0761 67.077 82.9921 67.077C83.5986 67.077 84.5304 66.059 85.3548 64.5479V64.5447Z" fill="#FFF9F0" style="fill:#FFF9F0;fill:color(display-p3 1.0000 0.9762 0.9427);fill-opacity:1;"></path><path id="Vector_22" d="M97.9634 64.605C96.9021 66.7269 95.7681 68.8329 92.5621 68.8361C90.7491 68.8361 89.3371 67.8053 89.334 65.887C89.334 63.4693 90.9417 61.1597 93.3234 61.1597C94.77 61.1597 95.5407 62.2286 95.5407 63.3357C95.5407 65.5307 93.0896 66.5137 91.2386 66.0906C91.3682 66.8287 91.8988 67.2709 92.9633 67.2709C94.7416 67.2709 95.8219 66.3261 97.1201 63.7047L97.9634 64.6082V64.605ZM91.2734 64.9263C92.4453 65.0535 93.8003 64.4268 93.8193 63.412C93.8382 62.9889 93.5982 62.693 93.1939 62.693C92.2778 62.693 91.5103 63.692 91.2734 64.9295V64.9263Z" fill="#FFF9F0" style="fill:#FFF9F0;fill:color(display-p3 1.0000 0.9762 0.9427);fill-opacity:1;"></path><path id="Vector_23" d="M104.03 66.2978C103.446 67.3126 101.999 68.8269 100.496 68.8301C99.3773 68.8301 98.7898 68.0189 98.7898 67.0772C98.7898 65.9319 99.3552 64.7517 100.05 63.2183C99.6837 63.1992 99.2257 63.1451 98.8214 63.0338C98.0728 64.8439 97.1568 66.2278 96.2061 67.3731C95.309 68.4451 94.6299 67.3381 95.4164 66.4155C96.7178 64.8821 97.4474 62.668 97.9402 60.6924H99.6079C99.5353 60.9692 99.4626 61.2268 99.371 61.4845C100.268 61.669 101.809 61.7422 102.504 61.7231C101.791 63.2565 100.694 65.7283 100.694 66.5777C100.694 66.8736 100.843 67.0581 101.08 67.0581C101.519 67.0581 102.381 66.1896 102.985 65.2671L104.03 66.301V66.2978Z" fill="#FFF9F0" style="fill:#FFF9F0;fill:color(display-p3 1.0000 0.9762 0.9427);fill-opacity:1;"></path></g></g><g id="Group_4"><path id="Vector_24" d="M48.1758 79.8337V76.8306H49.0065V79.8337H48.1758Z" fill="white" style="fill:white;fill-opacity:1;"></path><path id="Vector_25" d="M51.798 79.8783H51.6906L50.3545 78.5231V79.8338H49.5996V76.7861H49.7102L51.0463 78.135V76.8307H51.798V79.8783Z" fill="white" style="fill:white;fill-opacity:1;"></path><path id="Vector_26" d="M52.6182 79.8656C52.4982 79.8656 52.3782 79.8624 52.2455 79.8528L52.2771 79.1975C52.4066 79.2198 52.5645 79.2389 52.6846 79.2389C53.1394 79.2389 53.291 79.118 53.291 78.9748C53.291 78.8317 53.171 78.733 52.8425 78.5422C52.4919 78.3449 52.2266 78.0968 52.2266 77.6864C52.2266 77.1615 52.6688 76.7988 53.5216 76.7988C53.6637 76.7988 53.8059 76.8084 53.9512 76.8243L53.9196 77.4669C53.7869 77.4446 53.6353 77.4319 53.49 77.4319C53.1078 77.4319 52.9846 77.5083 52.9846 77.6228C52.9846 77.7596 53.1268 77.8359 53.4047 78.0013C53.7869 78.2145 54.0459 78.4563 54.0459 78.9016C54.0459 79.5315 53.49 79.8656 52.6119 79.8656H52.6182Z" fill="white" style="fill:white;fill-opacity:1;"></path><path id="Vector_27" d="M55.5928 78.9461H55.2295V79.8337H54.4746V76.8306H55.5991C56.2908 76.8306 56.6383 77.241 56.6383 77.8645C56.6383 78.4307 56.3066 78.9461 55.5928 78.9461ZM55.4506 77.4318H55.2295V78.3417H55.4475C55.7223 78.3417 55.8707 78.1635 55.8707 77.8613C55.8707 77.5845 55.7254 77.435 55.4506 77.435V77.4318Z" fill="white" style="fill:white;fill-opacity:1;"></path><path id="Vector_28" d="M57.0547 79.8337V76.8306H57.8096V79.8337H57.0547Z" fill="white" style="fill:white;fill-opacity:1;"></path><path id="Vector_29" d="M59.8261 79.8337L59.3176 78.7012H59.1534V79.8337H58.3984V76.8306H59.5229C60.142 76.8306 60.5495 77.1519 60.5495 77.7341C60.5495 78.1253 60.3063 78.4307 59.9967 78.5421L60.6695 79.8337H59.8293H59.8261ZM59.3903 77.4286H59.1502V78.1285H59.3081C59.6177 78.1285 59.7851 78.014 59.7851 77.7595C59.7851 77.54 59.6271 77.4286 59.3871 77.4286H59.3903Z" fill="white" style="fill:white;fill-opacity:1;"></path><path id="Vector_30" d="M61.041 79.8337V76.8306H62.832V77.4414H61.7959V77.9313H62.832V78.5103H61.7959V79.2229H62.832V79.8337H61.041Z" fill="white" style="fill:white;fill-opacity:1;"></path><path id="Vector_31" d="M64.2672 79.8337H63.3164V76.8306H64.2672C65.2463 76.8306 65.6001 77.4986 65.6001 78.2971C65.6001 79.1879 65.1137 79.8337 64.2672 79.8337ZM64.2577 77.4446H64.0618V79.2197H64.2577C64.643 79.2197 64.8326 78.8507 64.8326 78.3003C64.8326 77.75 64.602 77.4446 64.2577 77.4446Z" fill="white" style="fill:white;fill-opacity:1;"></path><path id="Vector_32" d="M68.4276 79.8337H67.2715V76.8306H68.4433C68.8887 76.8306 69.3688 77.0214 69.3688 77.5527C69.3688 77.874 69.1288 78.1317 68.914 78.1603C69.2014 78.2049 69.4794 78.4594 69.4794 78.8698C69.4794 79.4233 69.1256 79.8369 68.4276 79.8369V79.8337ZM68.2854 77.4318H68.0296V77.9186H68.2854C68.4939 77.9186 68.6139 77.8295 68.6139 77.6609C68.6139 77.5018 68.4718 77.435 68.2854 77.435V77.4318ZM68.2759 78.4912H68.0264V79.2324H68.2791C68.5476 79.2324 68.7087 79.0988 68.7087 78.8411C68.7087 78.5962 68.5318 78.4944 68.2759 78.4944V78.4912Z" fill="white" style="fill:white;fill-opacity:1;"></path><path id="Vector_33" d="M70.76 79.8337H69.9198L70.3589 78.8443L69.5977 76.8306H70.4L70.7758 77.9885L71.177 76.8306H71.973L70.76 79.8337Z" fill="white" style="fill:white;fill-opacity:1;"></path><path id="Vector_34" d="M75.7219 79.8783H75.6145L74.2784 78.5231V79.8338H73.5234V76.7861H73.634L74.9701 78.135V76.8307H75.7219V79.8783Z" fill="white" style="fill:white;fill-opacity:1;"></path><path id="Vector_35" d="M77.7382 79.834L77.6276 79.3091H76.9675L76.8601 79.834H76.0957L76.8917 76.7959H77.7224L78.5184 79.834H77.735H77.7382ZM77.296 77.5976L77.0749 78.7078H77.5203L77.296 77.5976Z" fill="white" style="fill:white;fill-opacity:1;"></path><path id="Vector_36" d="M79.7708 77.4732V79.8337H79.0127V77.4732H78.4062V76.8306H80.3741V77.4732H79.7676H79.7708Z" fill="white" style="fill:white;fill-opacity:1;"></path><path id="Vector_37" d="M82.9089 78.997C82.9089 79.4933 82.6215 79.9164 81.8129 79.9164C81.0042 79.9164 80.7168 79.4901 80.7168 78.997V76.8306H81.4749V78.9175C81.4749 79.1211 81.5728 79.3088 81.8192 79.3088C82.0813 79.3088 82.1635 79.1338 82.1635 78.9207V76.8306H82.9121V78.997H82.9089Z" fill="white" style="fill:white;fill-opacity:1;"></path><path id="Vector_38" d="M84.8789 79.8337L84.3703 78.7012H84.2061V79.8337H83.4512V76.8306H84.5756C85.1947 76.8306 85.6022 77.1519 85.6022 77.7341C85.6022 78.1253 85.359 78.4307 85.0494 78.5421L85.7222 79.8337H84.882H84.8789ZM84.4461 77.4286H84.2061V78.1285H84.364C84.6736 78.1285 84.841 78.014 84.841 77.7595C84.841 77.54 84.683 77.4286 84.443 77.4286H84.4461Z" fill="white" style="fill:white;fill-opacity:1;"></path><path id="Vector_39" d="M86.0957 79.8337V76.8306H87.8867V77.4414H86.8506V77.9313H87.8867V78.5103H86.8506V79.2229H87.8867V79.8337H86.0957Z" fill="white" style="fill:white;fill-opacity:1;"></path><path id="Vector_40" d="M53.7518 85.2103C52.8547 85.2103 52.4473 84.5327 52.4473 83.6419C52.4473 82.9293 52.7473 82.1436 53.9824 82.1436C54.1245 82.1436 54.2667 82.1467 54.4056 82.1626L54.3835 82.7989C54.2698 82.7957 54.1529 82.7894 54.0519 82.7894C53.3854 82.7894 53.2148 83.1584 53.2148 83.6992C53.2148 84.1509 53.3127 84.5963 53.6697 84.5963C53.7107 84.5963 53.7549 84.5931 53.7834 84.5772V83.556H54.5035V85.0799C54.273 85.1594 54.014 85.2103 53.7455 85.2103H53.7518Z" fill="white" style="fill:white;fill-opacity:1;"></path><path id="Vector_41" d="M57.1569 84.3417C57.1569 84.838 56.8695 85.2611 56.0609 85.2611C55.2523 85.2611 54.9648 84.8348 54.9648 84.3417V82.1753H55.7229V84.2622C55.7229 84.4658 55.8208 84.6535 56.0672 84.6535C56.3294 84.6535 56.4115 84.4785 56.4115 84.2654V82.1753H57.1601V84.3417H57.1569Z" fill="white" style="fill:white;fill-opacity:1;"></path><path id="Vector_42" d="M57.7012 85.1784V82.1753H58.4561V85.1784H57.7012Z" fill="white" style="fill:white;fill-opacity:1;"></path><path id="Vector_43" d="M59.9957 85.1784H59.0449V82.1753H59.9957C60.9749 82.1753 61.3286 82.8434 61.3286 83.6419C61.3286 84.5326 60.8422 85.1784 59.9957 85.1784ZM59.9862 82.7893H59.7904V84.5644H59.9862C60.3716 84.5644 60.5611 84.1954 60.5611 83.645C60.5611 83.0947 60.3305 82.7893 59.9862 82.7893Z" fill="white" style="fill:white;fill-opacity:1;"></path><path id="Vector_44" d="M61.7578 85.1784V82.1753H63.5488V82.7861H62.5127V83.276H63.5488V83.855H62.5127V84.5676H63.5488V85.1784H61.7578Z" fill="white" style="fill:white;fill-opacity:1;"></path><path id="Vector_45" d="M64.9859 85.1784H64.0352V82.1753H64.9859C65.9651 82.1753 66.3189 82.8434 66.3189 83.6419C66.3189 84.5326 65.8324 85.1784 64.9859 85.1784ZM64.9764 82.7893H64.7806V84.5644H64.9764C65.3618 84.5644 65.5513 84.1954 65.5513 83.645C65.5513 83.0947 65.3207 82.7893 64.9764 82.7893Z" fill="white" style="fill:white;fill-opacity:1;"></path><path id="Vector_46" d="M69.1424 85.1784H67.9863V82.1753H69.1582C69.6036 82.1753 70.0837 82.3662 70.0837 82.8974C70.0837 83.2187 69.8436 83.4764 69.6288 83.5051C69.9163 83.5496 70.1942 83.8041 70.1942 84.2145C70.1942 84.768 69.8405 85.1816 69.1424 85.1816V85.1784ZM69.0003 82.7766H68.7444V83.2633H69.0003C69.2087 83.2633 69.3288 83.1742 69.3288 83.0056C69.3288 82.8465 69.1866 82.7797 69.0003 82.7797V82.7766ZM68.9939 83.8359H68.7444V84.5771H68.9971C69.2656 84.5771 69.4267 84.4435 69.4267 84.1859C69.4267 83.9409 69.2498 83.8391 68.9939 83.8391V83.8359Z" fill="white" style="fill:white;fill-opacity:1;"></path><path id="Vector_47" d="M71.4768 85.1784H70.6366L71.0757 84.189L70.3145 82.1753H71.1167L71.4926 83.3333L71.8938 82.1753H72.6898L71.4768 85.1784Z" fill="white" style="fill:white;fill-opacity:1;"></path><path id="Vector_48" d="M76.3265 85.2579C75.202 85.2579 74.0996 84.838 74.0996 83.6768C74.0996 82.5156 75.3346 82.0957 76.3265 82.0957C77.0087 82.0957 77.5962 82.1943 78.1079 82.4393L77.9405 83.0628C77.4762 82.8656 76.9677 82.7447 76.3991 82.7447C75.4894 82.7447 74.9651 83.0755 74.9651 83.6863C74.9651 84.2971 75.5147 84.6184 76.3991 84.6184C76.6865 84.6184 76.9961 84.5835 77.2519 84.5103V83.6291H78.0827V84.962C77.6436 85.137 77.0529 85.2611 76.3233 85.2611L76.3265 85.2579Z" fill="white" style="fill:white;fill-opacity:1;"></path><path id="Vector_49" d="M79.6539 85.2579C78.8169 85.2579 78.5137 84.5103 78.5137 83.6768C78.5137 82.8433 78.8264 82.0957 79.6539 82.0957C80.4815 82.0957 80.7942 82.8274 80.7942 83.6768C80.7942 84.5262 80.4752 85.2579 79.6539 85.2579ZM79.6539 82.7129C79.3444 82.7129 79.2686 83.101 79.2686 83.6768C79.2686 84.2526 79.3475 84.6407 79.6539 84.6407C79.9603 84.6407 80.0393 84.2526 80.0393 83.6768C80.0393 83.0628 79.954 82.7129 79.6539 82.7129Z" fill="white" style="fill:white;fill-opacity:1;"></path><path id="Vector_50" d="M82.1851 85.1784H81.2344V82.1753H82.1851C83.1643 82.1753 83.5181 82.8434 83.5181 83.6419C83.5181 84.5326 83.0316 85.1784 82.1851 85.1784ZM82.1757 82.7893H81.9798V84.5644H82.1757C82.561 84.5644 82.7505 84.1954 82.7505 83.645C82.7505 83.0947 82.5199 82.7893 82.1757 82.7893Z" fill="white" style="fill:white;fill-opacity:1;"></path></g><g id="Group_5"><g id="Group_6"><path id="Vector_51" d="M32.7598 36.0976C33.5052 35.9831 34.3391 35.8908 35.0908 35.8177C35.3499 35.7922 35.6057 35.7508 35.8616 35.7954L42.6369 35.754H42.5926L45.6976 35.3977L45.7765 35.3882L45.8524 35.4073L47.5738 35.6745L47.4506 35.6618L50.5556 35.5218H50.6219L50.6882 35.5345L53.7774 36.3489C54.0048 36.3235 54.8766 36.6607 55.2557 36.7625C55.7579 36.9279 56.2601 37.0997 56.7592 37.281C55.9979 37.3033 55.1419 37.3033 54.3775 37.2906C54.1122 37.2906 53.8469 37.2969 53.5942 37.2238L53.5531 37.2142L50.464 36.3998L50.5966 36.4126L47.4949 36.5525C47.4538 36.5589 47.4096 36.5525 47.3717 36.5398L45.6502 36.2726L45.805 36.2821C45.7829 36.2821 42.6969 36.6416 42.6779 36.6416H42.6558L35.8521 36.6893C35.5931 36.7084 35.3341 36.6448 35.0751 36.5939C34.3296 36.4507 33.4957 36.2758 32.7629 36.0912L32.7598 36.0976Z" fill="#FFD494" style="fill:#FFD494;fill:color(display-p3 1.0000 0.8312 0.5793);fill-opacity:1;"></path><path id="Vector_52" d="M49.6232 31.0682C50.3308 30.9409 50.9214 31.0968 51.531 31.434L53.6789 32.4107L53.6063 32.3852L55.4257 32.8369L56.3354 33.066C56.607 33.2728 56.8786 33.4764 57.1408 33.7245C56.7965 33.8231 56.4617 33.874 56.1237 33.9313L55.214 33.7054L53.3947 33.2537C53.3757 33.2505 53.3378 33.2378 53.3188 33.2282L51.171 32.2516C50.514 32.0225 46.9415 31.0363 46.5625 30.4224L49.6232 31.0682Z" fill="#FFD494" style="fill:#FFD494;fill:color(display-p3 1.0000 0.8312 0.5793);fill-opacity:1;"></path><path id="Vector_53" d="M45.5273 23.8403C46.1054 24.1362 46.6613 24.4702 47.2109 24.8074C47.3973 24.9506 47.8458 25.4182 48.0416 25.5837L47.8205 25.4723L50.8339 26.0386L50.9665 26.064L51.0645 26.1595L53.2313 28.31L52.9944 28.1891L56.033 28.7172L56.1909 28.7459L56.2952 28.8667C56.4594 29.0672 56.8985 29.5698 57.0659 29.7607C57.3912 30.346 57.7102 30.9409 57.9977 31.5517C57.4418 31.1732 56.9048 30.7628 56.3805 30.3524C56.2288 30.1583 55.7898 29.6493 55.6192 29.4489L55.8814 29.5984L52.8428 29.0703L52.7069 29.0481L52.609 28.9495L50.4422 26.7989L50.6728 26.9198L47.6594 26.3535L47.5331 26.3313C47.4573 26.2645 46.9708 25.8 46.8856 25.7268C46.794 25.6378 46.6803 25.5741 46.6108 25.4691C46.238 24.9442 45.8685 24.4066 45.5305 23.8499L45.5273 23.8403Z" fill="#FFD494" style="fill:#FFD494;fill:color(display-p3 1.0000 0.8312 0.5793);fill-opacity:1;"></path><path id="Vector_54" d="M54.9336 23.8052C55.6159 23.8688 56.1149 24.1551 56.5793 24.6323L57.9343 25.7998C58.3418 26.2961 59.2294 27.5336 59.6147 28.0331C59.8737 29.172 59.9337 29.1497 58.904 28.5707C58.566 28.1158 57.6406 26.8783 57.2899 26.4106L57.3563 26.4806L56.0012 25.3131C55.4611 24.9282 55.101 24.4732 54.9336 23.8052Z" fill="#FFD494" style="fill:#FFD494;fill:color(display-p3 1.0000 0.8312 0.5793);fill-opacity:1;"></path><path id="Vector_55" d="M56.2578 17.4556C57.2717 18.0823 57.7866 18.6867 58.4183 19.6729L59.5017 21.9825L59.4544 21.8966L61.1632 24.3176C61.1632 24.3176 61.1916 24.3589 61.1979 24.3748L61.5296 25.0334C61.9371 25.6919 62.0192 26.4458 62.1266 27.2125C61.7475 26.853 61.4096 26.4745 61.0716 26.0959C60.8758 25.7237 60.6041 25.1606 60.4083 24.7789L60.443 24.8361L58.7342 22.4152C58.7184 22.3961 58.6931 22.3547 58.6868 22.3293L58.6837 21.8235L57.6539 20.1151C57.0001 19.3166 57.575 20.2837 57.3412 19.2593L56.261 17.4587L56.2578 17.4556Z" fill="#FFD494" style="fill:#FFD494;fill:color(display-p3 1.0000 0.8312 0.5793);fill-opacity:1;"></path><path id="Vector_56" d="M62.758 19.2466C63.3234 19.6411 63.6108 20.1437 63.7782 20.7895L64.3815 22.4851C64.3878 22.501 64.3973 22.5297 64.3973 22.5456L64.7605 24.3016L64.9406 25.1797C64.8679 25.501 64.8016 25.8191 64.6879 26.1499C64.4541 25.8923 64.2646 25.6282 64.072 25.3642L63.8888 24.4861L63.5255 22.7301L63.5413 22.7905L62.938 21.0949C62.6569 20.4873 62.5653 19.9146 62.7516 19.2498L62.758 19.2466Z" fill="#FFD494" style="fill:#FFD494;fill:color(display-p3 1.0000 0.8312 0.5793);fill-opacity:1;"></path></g><g id="Group_7"><path id="Vector_57" d="M97.9019 36.0981C97.1565 35.9836 96.3226 35.8913 95.5708 35.8181C95.3118 35.7927 95.056 35.7513 94.8001 35.7959L91.7141 35.7545H91.7583L88.6534 35.3982L88.5744 35.3887L88.4986 35.4078L86.7771 35.675L86.9003 35.6623L83.7954 35.5223H83.729L83.6627 35.535L80.5736 36.3494C80.3461 36.324 79.4743 36.6612 79.0953 36.763C78.5931 36.9284 78.0909 37.1002 77.5918 37.2815C78.353 37.3038 79.209 37.3038 79.9734 37.2911C80.2387 37.2911 80.5041 37.2974 80.7568 37.2243L80.7978 37.2147L83.887 36.4003L83.7543 36.413L86.8561 36.553C86.8972 36.5594 86.9414 36.553 86.9793 36.5403L88.7008 36.2731L88.546 36.2826C88.5681 36.2826 91.6541 36.6421 91.673 36.6421H91.6952L94.8096 36.6898C95.0686 36.7089 95.3276 36.6453 95.5866 36.5944C96.3321 36.4512 97.1659 36.2762 97.8987 36.0917L97.9019 36.0981Z" fill="#FFD494" style="fill:#FFD494;fill:color(display-p3 1.0000 0.8312 0.5793);fill-opacity:1;"></path><path id="Vector_58" d="M86.4346 30.33C85.7271 30.2028 83.0044 31.3003 82.3947 31.6375L80.667 32.4138L80.7396 32.3883L78.9202 32.8401L78.0105 33.0691C77.7389 33.2759 77.4672 33.4795 77.2051 33.7276C77.5494 33.8263 77.8842 33.8772 78.2222 33.9344L79.1319 33.7085L80.9512 33.2568C80.9702 33.2536 81.0081 33.2409 81.027 33.2314L82.7548 32.4551C83.4118 32.2261 89.0311 31.0363 89.4101 30.4223L86.4315 30.33H86.4346Z" fill="#FFD494" style="fill:#FFD494;fill:color(display-p3 1.0000 0.8312 0.5793);fill-opacity:1;"></path><path id="Vector_59" d="M88.8219 23.8403C88.2439 24.1362 87.688 24.4702 87.1383 24.8074C86.952 24.9506 86.5035 25.4182 86.3076 25.5837L86.5287 25.4723L83.5154 26.0386L83.3827 26.064L83.2848 26.1595L81.118 28.31L81.3549 28.1891L78.3162 28.7172L78.1583 28.7459L78.0541 28.8667C77.8898 29.0672 77.4508 29.5698 77.2834 29.7607C76.958 30.346 76.639 30.9409 76.3516 31.5517C76.9075 31.1732 77.4445 30.7628 77.9688 30.3524C78.1204 30.1583 78.5595 29.6493 78.73 29.4489L78.4679 29.5984L81.5065 29.0703L81.6423 29.0481L81.7402 28.9495L83.907 26.7989L83.6765 26.9198L86.6898 26.3535L86.8162 26.3313C86.892 26.2645 87.3784 25.8 87.4637 25.7268C87.5553 25.6378 87.669 25.5741 87.7385 25.4691C88.1112 24.9442 88.4808 24.4066 88.8187 23.8499L88.8219 23.8403Z" fill="#FFD494" style="fill:#FFD494;fill:color(display-p3 1.0000 0.8312 0.5793);fill-opacity:1;"></path><path id="Vector_60" d="M79.4161 23.8052C78.7339 23.8688 78.2348 24.1551 77.7705 24.6323L76.4154 25.7998C76.008 26.2961 75.1204 27.5336 74.735 28.0331C74.476 29.172 74.416 29.1497 75.4457 28.5707C75.7837 28.1158 76.7092 26.8783 77.0598 26.4106L76.9935 26.4806L78.3485 25.3131C78.8886 24.9282 79.2487 24.4732 79.4161 23.8052Z" fill="#FFD494" style="fill:#FFD494;fill:color(display-p3 1.0000 0.8312 0.5793);fill-opacity:1;"></path><path id="Vector_61" d="M78.4207 17.3125C77.4067 17.9392 76.8919 18.5437 76.2602 19.5298L74.8514 21.9826L74.8988 21.8967L73.19 24.3177C73.19 24.3177 73.1615 24.359 73.1552 24.3749L72.8235 25.0334C72.4161 25.692 72.334 26.4459 72.2266 27.2126C72.6056 26.8531 72.9436 26.4746 73.2815 26.096C73.4774 25.7238 73.749 25.1607 73.9449 24.7789L73.9101 24.8362L75.619 22.4153C75.6347 22.3962 75.66 22.3548 75.6663 22.3294L75.9948 21.6772L77.0245 19.9689C77.6784 19.1704 77.1035 20.1375 77.3373 19.1131L78.4175 17.3125H78.4207Z" fill="#FFD494" style="fill:#FFD494;fill:color(display-p3 1.0000 0.8312 0.5793);fill-opacity:1;"></path><path id="Vector_62" d="M71.5908 19.2466C71.0254 19.6411 70.738 20.1437 70.5706 20.7895L69.9673 22.4851C69.961 22.501 69.9515 22.5297 69.9515 22.5456L69.5882 24.3016L69.4082 25.1797C69.4809 25.501 69.5472 25.8191 69.6609 26.1499C69.8946 25.8923 70.0842 25.6282 70.2768 25.3642L70.46 24.4861L70.8233 22.7301L70.8075 22.7905L71.4108 21.0949C71.6919 20.4873 71.7835 19.9146 71.5971 19.2498L71.5908 19.2466Z" fill="#FFD494" style="fill:#FFD494;fill:color(display-p3 1.0000 0.8312 0.5793);fill-opacity:1;"></path><path id="Vector_63" d="M67.6807 10.7749C67.5544 11.408 67.4691 12.0506 67.3901 12.6868C67.368 12.8141 67.4091 12.9382 67.4185 13.0622C67.4217 13.0972 67.4786 13.883 67.4912 13.883L66.711 16.8734V16.6475L65.8929 19.6666L65.8613 19.7874L65.8961 19.9083L66.7552 22.9019L66.7363 22.7715L66.7268 23.5223C66.711 24.2794 66.9858 25.0334 67.1406 25.7841C67.3143 25.0397 67.6112 24.2921 67.6175 23.535C67.6112 23.4268 67.6491 22.7333 67.6112 22.6538L66.7521 19.6602V19.902L67.5733 16.8829L67.6049 16.7716L67.5765 16.6571C67.5923 16.7366 68.2966 13.3804 68.3693 13.7398L68.3093 12.9891C68.2966 12.865 68.3188 12.7377 68.2777 12.6137C68.0976 11.9997 67.9113 11.3793 67.687 10.7749H67.6807Z" fill="#FFD494" style="fill:#FFD494;fill:color(display-p3 1.0000 0.8312 0.5793);fill-opacity:1;"></path></g></g><path id="Vector_64" d="M74.8647 36.492C71.9303 36.1739 72.6063 38.0922 71.1438 38.0604C69.9435 38.0381 68.8506 37.5927 68.0041 36.8579C68.7053 37.7359 69.1065 38.8557 69.0812 40.0582C69.0559 41.528 67.0881 40.0041 67.3787 43.7135C67.3787 43.723 67.3787 43.7326 67.3787 43.7389C67.3408 43.7008 67.3029 43.6658 67.265 43.6244C66.3458 42.6955 65.7867 41.4039 65.812 39.9946C65.8341 38.7921 66.2763 37.6882 67.0123 36.8419C66.1342 37.5386 65.0255 37.9427 63.8315 37.9204C62.3722 37.8949 61.0804 37.2428 60.1833 36.2216C60.1833 36.2216 60.177 36.2121 60.1738 36.2089C60.1738 36.2089 60.1833 36.2089 60.1865 36.2089C63.4367 36.8579 62.4354 34.6023 63.8947 34.6278C65.0887 34.6501 66.1784 35.0954 67.0249 35.8303C66.3332 34.9523 65.932 33.8388 65.9573 32.6395C65.9826 31.1634 68.5474 31.507 67.6661 28.9492C68.6453 29.8909 69.2518 31.2238 69.2233 32.7031C69.2012 33.9088 68.759 35.0032 68.0294 35.8494C68.9012 35.1527 70.013 34.7487 71.207 34.7709C72.6694 34.7996 73.9708 35.4613 74.8615 36.492H74.8647Z" fill="#FFD494" style="fill:#FFD494;fill:color(display-p3 1.0000 0.8312 0.5793);fill-opacity:1;"></path></g><defs><clipPath id="clip0_68_5115"><rect width="137" height="103" fill="white" style="fill:white;fill-opacity:1;"></rect></clipPath></defs></svg>