<svg xmlns="http://www.w3.org/2000/svg" width="250" height="187" viewBox="0 0 250 187" fill="none"><g clip-path="url(#clip0_44_4365)"><path d="M124.415 180.641L22.1164 120.146C11.822 114.059 5.78709 103.275 5.96577 91.2966C6.15022 79.3177 12.5136 68.7251 22.9867 62.9552L125.568 6.44568L227.388 64.3125C237.786 70.221 244.006 80.9003 244.029 92.8791C244.052 104.858 237.873 115.56 227.498 121.509L124.409 180.635L124.415 180.641ZM125.551 9.50103L24.2721 65.2886C14.6463 70.5907 8.79588 80.3285 8.62872 91.3312C8.46157 102.34 14.0065 112.245 23.4709 117.842L124.432 177.545L226.178 119.193C235.711 113.724 241.389 103.888 241.366 92.8849C241.343 81.8822 235.625 72.0635 226.074 66.6343L125.551 9.50103Z" fill="#D7FFE3" style="fill:#D7FFE3;fill:color(display-p3 0.8428 1.0000 0.8917);fill-opacity:1;"></path><path d="M39.1611 94.1903C39.1554 86.318 44.3256 75.6214 51.9859 75.6156C56.6029 75.6156 59.0468 79.8954 57.5136 85.0242H53.5998C54.7987 81.6397 53.5998 79.2659 51.4211 79.2659C47.0059 79.2659 43.0691 87.5829 43.0749 93.9477C43.0749 96.8991 44.2507 98.7069 46.5909 98.7011C48.7985 98.7011 50.5334 96.7547 51.9052 94.0054L55.1849 95.4089C53.6863 99.2325 50.5795 102.415 46.0318 102.421C42.4524 102.421 39.1727 99.7812 39.1669 94.1845L39.1611 94.1903Z" fill="#D7FFE3" style="fill:#D7FFE3;fill:color(display-p3 0.8428 1.0000 0.8917);fill-opacity:1;"></path><path d="M63.3753 96.4486C63.3753 93.8668 65.8423 91.0194 65.8423 89.4426C65.8423 88.9055 65.6405 88.5358 65.0411 88.5416C62.332 88.5416 59.7267 95.38 58.7296 99.0707H55.2539C57.2194 93.2777 60.0553 84.8971 62.4243 78.024H65.8365C64.5685 81.5415 63.3696 85.0242 62.1995 88.5474C63.3984 86.5028 65.2083 85.4632 66.8452 85.4574C68.4822 85.4516 69.5197 86.5605 69.56 88.2008C69.6292 90.6786 66.9259 94.0343 66.9259 95.4725C66.9259 95.9056 67.1968 96.1771 67.5945 96.1771C68.9318 96.1771 70.9722 93.526 72.6726 90.1068L74.1481 91.7125C72.8801 94.5599 69.7387 99.3884 66.4302 99.3942C64.4244 99.3942 63.3868 98.1582 63.3868 96.4486H63.3753Z" fill="#D7FFE3" style="fill:#D7FFE3;fill:color(display-p3 0.8428 1.0000 0.8917);fill-opacity:1;"></path><path d="M88.288 90.7653C87.556 92.1746 85.0832 93.786 82.5413 93.3817C81.573 96.6681 79.0368 99.3827 75.5266 99.3885C72.685 99.3885 70.9442 97.315 70.9385 94.5022C70.9385 89.847 74.0395 85.4517 78.4893 85.4459C81.4289 85.4459 82.9736 87.889 82.9736 90.3668V90.6325C84.4146 91.0021 85.8498 90.4939 86.7202 89.0557L88.2937 90.7653H88.288ZM79.4922 90.6383C79.4922 89.333 78.9561 88.3915 77.9186 88.3973C76.1145 88.3973 74.3738 91.5855 74.3796 94.0286C74.3796 95.5361 75.0194 96.3043 75.9877 96.3043C77.7284 96.3043 79.498 93.1854 79.4922 90.6383Z" fill="#D7FFE3" style="fill:#D7FFE3;fill:color(display-p3 0.8428 1.0000 0.8917);fill-opacity:1;"></path><path d="M113.101 91.6779C110.732 96.772 108.328 99.3884 102.945 99.3942C100.605 99.3942 97.9935 98.2275 96.9906 95.9808C96.2874 96.2176 95.5842 96.3157 94.8522 96.3157C93.5495 98.1235 91.6474 99.3653 89.2727 99.3711C86.4311 99.3711 84.6903 97.2976 84.6846 94.4849C84.6846 89.8296 87.7856 85.4343 92.2354 85.4285C95.175 85.4285 96.7197 87.8717 96.7197 90.3494C96.7197 91.2851 96.5871 92.2266 96.3566 93.1333C99.1982 92.0591 100.766 88.2067 101.498 85.1224H105.308C106.213 87.1959 108.023 90.2744 108.023 92.7579C107.988 94.1961 107.556 95.5072 106.622 96.3793C108.127 95.5418 110.029 93.6301 111.666 90.078L113.107 91.6836L113.101 91.6779ZM93.2383 90.6267C93.2383 89.3214 92.7022 88.3799 91.6647 88.3857C89.8606 88.3857 88.1199 91.5739 88.1257 94.017C88.1257 95.5245 88.7654 96.2927 89.7338 96.2927C91.4745 96.2927 93.244 93.1738 93.2383 90.6267ZM104.68 93.5319C104.68 91.7587 104.011 90.0491 103.273 88.6052C102.507 91.2216 101.135 93.2662 99.4691 94.6061C99.8726 95.5129 100.806 96.5814 102.247 96.5814C103.786 96.5814 104.651 95.074 104.685 93.5319H104.68Z" fill="#D7FFE3" style="fill:#D7FFE3;fill:color(display-p3 0.8428 1.0000 0.8917);fill-opacity:1;"></path><path d="M123.212 96.027C121.644 97.7713 118.97 99.348 115.892 99.348C112.583 99.348 110.007 97.4767 110.001 93.994C110.001 89.6044 112.935 85.4113 117.281 85.4113C119.921 85.4113 121.327 87.3519 121.327 89.3618C121.327 93.2835 116.854 95.1318 113.477 94.3636C113.713 95.7036 114.681 96.5064 116.624 96.5064C118.532 96.5064 120.635 94.8603 121.806 93.6878L123.212 96.0328V96.027ZM113.546 92.215C115.684 92.4807 118.157 91.2736 118.192 89.4947C118.226 88.7265 117.788 88.1894 117.05 88.1894C115.379 88.1894 113.978 90.0029 113.546 92.215Z" fill="#D7FFE3" style="fill:#D7FFE3;fill:color(display-p3 0.8428 1.0000 0.8917);fill-opacity:1;"></path><path d="M150.883 75.864C147.88 84.5102 144.744 93.2604 142.012 102.005H137.43C137.09 95.6111 136.819 89.073 136.744 82.6735C134.577 89.073 132.508 95.6111 130.507 102.011H126.83C129.701 93.3008 132.6 84.5853 135.666 75.8698H139.978C140.053 82.6678 140.26 89.8065 140.566 96.6739C142.635 89.8008 145.033 82.662 147.2 75.8582H150.877L150.883 75.864Z" fill="#D7FFE3" style="fill:#D7FFE3;fill:color(display-p3 0.8428 1.0000 0.8917);fill-opacity:1;"></path><path d="M165.882 91.6316C164.614 94.479 161.473 99.3075 158.262 99.3133C156.654 99.3133 155.755 98.2101 155.553 97.0723C154.821 98.2448 153.616 99.3191 151.743 99.3191C149.437 99.3191 147.962 97.4131 147.962 94.4617C147.962 89.974 151.063 85.3765 154.844 85.3765C156.181 85.3765 157.484 86.214 157.991 87.115L158.458 85.7057H161.87C158.936 93.7455 158.066 96.0905 159.34 96.0905C160.614 96.0905 162.712 93.5434 164.418 90.0202L165.894 91.6258L165.882 91.6316ZM157.184 89.5293C156.746 88.8939 156.014 88.4261 155.178 88.4261C152.971 88.4261 151.501 91.545 151.507 94.1267C151.507 95.201 151.979 96.102 153.046 96.102C154.516 96.102 155.853 93.9534 157.184 89.5293Z" fill="#D7FFE3" style="fill:#D7FFE3;fill:color(display-p3 0.8428 1.0000 0.8917);fill-opacity:1;"></path><path d="M174.009 91.6259C172.741 94.4733 169.599 99.3018 166.389 99.3076C161.743 99.3076 162.538 94.3867 164.573 88.3511H163.138L164.037 85.7058H165.507L167.242 81.0448H170.717C170.014 82.7833 169.415 84.3254 168.885 85.7H171.692L170.758 88.3453H167.916C165.812 94.2481 165.784 96.0905 167.455 96.0905C168.758 96.0905 170.862 93.5434 172.533 90.0202L174.009 91.6259Z" fill="#D7FFE3" style="fill:#D7FFE3;fill:color(display-p3 0.8428 1.0000 0.8917);fill-opacity:1;"></path><path d="M188.592 91.6144C187.324 94.4618 184.183 99.2903 180.972 99.2961C179.537 99.2961 178.43 98.2911 178.361 96.5873C177.393 98.0947 175.889 99.3019 174.015 99.3076C170.47 99.3076 169.629 95.4264 173.802 85.7058H177.312C174.211 92.9428 173.612 96.1252 175.347 96.1252C177.22 96.1252 178.419 93.2431 181.024 85.7001H184.569C181.733 93.5724 180.696 96.0848 182.039 96.0848C183.341 96.0848 185.445 93.5377 187.117 90.0145L188.592 91.6202V91.6144Z" fill="#D7FFE3" style="fill:#D7FFE3;fill:color(display-p3 0.8428 1.0000 0.8917);fill-opacity:1;"></path><path d="M200.765 91.6028C199.532 94.4214 196.356 99.2787 193.18 99.2845C191.139 99.2845 190.067 97.8117 190.067 96.1021C190.067 94.0228 191.099 91.88 192.402 89.0962C191.733 89.0615 190.932 88.9633 190.16 88.7612C188.793 92.0475 187.122 94.56 185.387 96.6392C183.75 98.5856 182.511 96.5757 183.946 94.9007C186.315 92.1169 187.652 88.097 188.551 84.5103H191.595C191.462 85.0127 191.33 85.4806 191.162 85.9831C192.799 86.2834 195.578 86.4162 196.846 86.3816C195.578 89.1655 193.572 93.6532 193.578 95.1953C193.578 95.7324 193.848 96.0674 194.315 96.0674C195.589 96.0674 197.826 93.2142 199.29 89.9972L200.765 91.6028Z" fill="#D7FFE3" style="fill:#D7FFE3;fill:color(display-p3 0.8428 1.0000 0.8917);fill-opacity:1;"></path><path d="M210.84 95.9519C209.272 97.6961 206.598 99.2729 203.52 99.2729C200.211 99.2729 197.635 97.4016 197.629 93.9188C197.629 89.5293 200.563 85.3361 204.909 85.3361C207.549 85.3361 208.955 87.2768 208.961 89.2867C208.961 93.2084 204.488 95.0566 201.11 94.2885C201.347 95.6284 202.315 96.4313 204.257 96.4313C206.165 96.4313 208.269 94.7852 209.439 93.6127L210.846 95.9576L210.84 95.9519ZM201.168 92.1399C203.306 92.4056 205.779 91.1985 205.814 89.4195C205.848 88.6514 205.41 88.1142 204.672 88.1142C203.001 88.1142 201.6 89.9278 201.168 92.1399Z" fill="#D7FFE3" style="fill:#D7FFE3;fill:color(display-p3 0.8428 1.0000 0.8917);fill-opacity:1;"></path><path d="M73.422 124.461L72.3211 127.747L60.2168 127.759C63.1218 119.211 66.0845 110.062 69.0875 101.618H72.8341C70.2 108.988 67.5313 116.9 65.0643 124.472H73.422V124.461Z" fill="#D7FFE3" style="fill:#D7FFE3;fill:color(display-p3 0.8428 1.0000 0.8917);fill-opacity:1;"></path><path d="M85.6527 117.38C84.4192 120.227 81.2778 125.056 78.0327 125.061C72.8509 125.061 75.3179 118.529 77.952 111.46H81.4277C79.3238 117.154 77.2892 121.844 79.0933 121.844C80.3959 121.844 82.5055 119.297 84.2059 115.774L85.6469 117.38H85.6527ZM78.7244 107.902C78.7244 106.325 80.027 104.887 81.4623 104.881C82.4652 104.881 83.203 105.615 83.203 106.62C83.203 108.092 81.8657 109.669 80.4651 109.669C79.3584 109.669 78.7244 108.901 78.7244 107.896V107.902Z" fill="#D7FFE3" style="fill:#D7FFE3;fill:color(display-p3 0.8428 1.0000 0.8917);fill-opacity:1;"></path><path d="M99.7352 116.427C98.934 117.934 96.2595 119.615 93.5504 118.945C91.9481 122.497 89.2102 125.079 86.1668 125.085C83.6249 125.085 82.622 123.277 82.6162 121.099C82.6162 118.419 83.9131 114.394 85.014 111.448H88.5588C87.4579 114.631 86.0227 118.818 86.0227 120.695C86.0227 121.4 86.2936 121.769 86.8931 121.769C88.53 121.769 91.6368 116.872 91.4985 111.442H95.0779C95.147 113.083 94.9453 114.758 94.513 116.334C95.9194 116.669 97.2855 116.132 98.1558 114.723L99.7294 116.433L99.7352 116.427Z" fill="#D7FFE3" style="fill:#D7FFE3;fill:color(display-p3 0.8428 1.0000 0.8917);fill-opacity:1;"></path><path d="M109.238 121.711C107.671 123.456 104.996 125.032 101.918 125.032C98.6096 125.032 96.0331 123.161 96.0273 119.678C96.0273 115.289 98.9612 111.096 103.307 111.096C105.947 111.096 107.354 113.036 107.354 115.046C107.354 118.968 102.881 120.816 99.503 120.048C99.7393 121.388 100.708 122.191 102.65 122.191C104.593 122.191 106.662 120.545 107.832 119.372L109.238 121.717V121.711ZM99.5664 117.899C101.705 118.165 104.178 116.958 104.212 115.179C104.247 114.411 103.809 113.874 103.071 113.874C101.399 113.874 99.9987 115.687 99.5664 117.899Z" fill="#D7FFE3" style="fill:#D7FFE3;fill:color(display-p3 0.8428 1.0000 0.8917);fill-opacity:1;"></path><path d="M127.193 116.3C129.567 117.102 131.308 119.008 131.308 121.186C131.308 125.541 126.53 128.024 121.481 128.03C117.671 128.03 113.451 126.598 111.878 125.489L113.549 122.306C114.184 122.705 114.921 123.075 115.659 123.41C117.296 118.448 119.094 113.487 120.662 108.526H124.472L122.472 114.388C127.089 114.451 131.498 112.54 131.498 108.953C131.498 106.14 128.518 104.667 125.51 104.667C122.835 104.667 120.057 105.511 117.919 106.816L116.478 103.703C118.852 102.126 122.328 101.219 125.504 101.214C130.922 101.214 135.337 104.119 135.343 108.508C135.343 112.262 131.838 115.479 127.193 116.288V116.3ZM127.394 121.226C127.394 119.112 124.415 117.541 121.44 117.38C120.605 119.794 119.809 122.174 119.106 124.588C120.011 124.79 120.91 124.923 121.815 124.923C124.858 124.923 127.429 123.542 127.394 121.232V121.226Z" fill="#D7FFE3" style="fill:#D7FFE3;fill:color(display-p3 0.8428 1.0000 0.8917);fill-opacity:1;"></path><path d="M149.869 117.322C147.933 121.174 145.863 124.998 140.013 125.004C136.704 125.004 134.128 123.132 134.122 119.65C134.122 115.26 137.056 111.067 141.402 111.067C144.042 111.067 145.448 113.008 145.448 115.017C145.448 119.003 140.975 120.787 137.598 120.019C137.834 121.359 138.802 122.162 140.745 122.162C143.99 122.162 145.961 120.447 148.33 115.687L149.869 117.328V117.322ZM137.667 117.9C139.805 118.131 142.278 116.993 142.313 115.15C142.347 114.382 141.909 113.845 141.171 113.845C139.5 113.845 138.099 115.659 137.667 117.905V117.9Z" fill="#D7FFE3" style="fill:#D7FFE3;fill:color(display-p3 0.8428 1.0000 0.8917);fill-opacity:1;"></path><path d="M166.158 117.305C164.89 120.152 161.754 124.981 158.544 124.986C156.302 124.986 155.333 123.814 155.16 121.943C153.76 123.652 152.088 124.992 150.382 124.998C145.736 124.998 146.532 120.077 148.566 114.041H147.131L148.03 111.396H149.5L151.235 106.735H154.711C154.007 108.474 153.408 110.016 152.878 111.39H157.662C158.192 109.842 158.797 108.271 159.362 106.729H162.838C162.135 108.468 161.535 110.01 161.005 111.385H163.812L162.913 114.03H160.037C157.967 119.933 157.938 121.775 159.61 121.775C160.913 121.775 162.982 119.228 164.688 115.705L166.158 117.31V117.305ZM155.76 117.183C156.025 116.178 156.359 115.139 156.728 114.036H151.909C149.806 119.938 149.777 121.781 151.448 121.781C152.555 121.781 154.255 119.933 155.76 117.189V117.183Z" fill="#D7FFE3" style="fill:#D7FFE3;fill:color(display-p3 0.8428 1.0000 0.8917);fill-opacity:1;"></path><path d="M178.77 117.293C176.833 121.145 174.764 124.969 168.913 124.975C165.605 124.975 163.028 123.103 163.022 119.621C163.022 115.231 165.956 111.038 170.302 111.038C172.942 111.038 174.349 112.979 174.349 114.989C174.349 118.974 169.876 120.758 166.498 119.99C166.734 121.33 167.703 122.133 169.645 122.133C172.89 122.133 174.862 120.418 177.231 115.659L178.77 117.299V117.293ZM166.562 117.876C168.7 118.107 171.173 116.97 171.207 115.127C171.242 114.359 170.804 113.822 170.066 113.822C168.394 113.822 166.994 115.635 166.562 117.882V117.876Z" fill="#D7FFE3" style="fill:#D7FFE3;fill:color(display-p3 0.8428 1.0000 0.8917);fill-opacity:1;"></path><path d="M189.842 120.366C188.776 122.208 186.136 124.957 183.392 124.963C181.352 124.963 180.28 123.49 180.28 121.781C180.28 119.701 181.311 117.559 182.579 114.775C181.911 114.74 181.075 114.642 180.337 114.44C178.971 117.726 177.3 120.239 175.565 122.318C173.928 124.264 172.689 122.254 174.124 120.579C176.498 117.796 177.83 113.776 178.729 110.189H181.772C181.64 110.691 181.507 111.159 181.34 111.627C182.977 111.962 185.79 112.095 187.058 112.06C185.755 114.844 183.755 119.332 183.755 120.874C183.755 121.411 184.026 121.746 184.458 121.746C185.26 121.746 186.833 120.169 187.934 118.494L189.842 120.371V120.366Z" fill="#D7FFE3" style="fill:#D7FFE3;fill:color(display-p3 0.8428 1.0000 0.8917);fill-opacity:1;"></path><path d="M87.9111 144.941V139.489H89.427V144.941H87.9111Z" fill="#D7FFE3" style="fill:#D7FFE3;fill:color(display-p3 0.8428 1.0000 0.8917);fill-opacity:1;"></path><path d="M94.5225 145.022H94.3265L91.8883 142.562V144.941H90.5107V139.408H90.7125L93.1506 141.857V139.489H94.5225V145.022Z" fill="#D7FFE3" style="fill:#D7FFE3;fill:color(display-p3 0.8428 1.0000 0.8917);fill-opacity:1;"></path><path d="M96.0155 144.999C95.7965 144.999 95.5774 144.993 95.3354 144.976L95.393 143.786C95.6293 143.827 95.9175 143.861 96.1366 143.861C96.9666 143.861 97.2432 143.642 97.2432 143.382C97.2432 143.122 97.0242 142.943 96.4248 142.596C95.785 142.238 95.3008 141.788 95.3008 141.043C95.3008 140.09 96.1077 139.431 97.664 139.431C97.9234 139.431 98.1828 139.449 98.4479 139.477L98.3903 140.644C98.1482 140.604 97.8715 140.581 97.6064 140.581C96.9089 140.581 96.6841 140.719 96.6841 140.927C96.6841 141.176 96.9435 141.314 97.4507 141.614C98.1482 142.001 98.6208 142.44 98.6208 143.249C98.6208 144.393 97.6064 144.999 96.004 144.999H96.0155Z" fill="#D7FFE3" style="fill:#D7FFE3;fill:color(display-p3 0.8428 1.0000 0.8917);fill-opacity:1;"></path><path d="M101.445 143.33H100.782V144.941H99.4043V139.489H101.456C102.719 139.489 103.353 140.234 103.353 141.366C103.353 142.394 102.747 143.33 101.445 143.33ZM101.185 140.581H100.782V142.233H101.18C101.681 142.233 101.952 141.909 101.952 141.36C101.952 140.858 101.687 140.586 101.185 140.586V140.581Z" fill="#D7FFE3" style="fill:#D7FFE3;fill:color(display-p3 0.8428 1.0000 0.8917);fill-opacity:1;"></path><path d="M104.112 144.941V139.489H105.49V144.941H104.112Z" fill="#D7FFE3" style="fill:#D7FFE3;fill:color(display-p3 0.8428 1.0000 0.8917);fill-opacity:1;"></path><path d="M109.17 144.941L108.242 142.885H107.942V144.941H106.564V139.489H108.616C109.746 139.489 110.49 140.072 110.49 141.129C110.49 141.84 110.046 142.394 109.481 142.596L110.709 144.941H109.176H109.17ZM108.374 140.575H107.936V141.846H108.224C108.789 141.846 109.095 141.638 109.095 141.176C109.095 140.777 108.807 140.575 108.369 140.575H108.374Z" fill="#D7FFE3" style="fill:#D7FFE3;fill:color(display-p3 0.8428 1.0000 0.8917);fill-opacity:1;"></path><path d="M111.388 144.941V139.489H114.656V140.598H112.765V141.487H114.656V142.539H112.765V143.832H114.656V144.941H111.388Z" fill="#D7FFE3" style="fill:#D7FFE3;fill:color(display-p3 0.8428 1.0000 0.8917);fill-opacity:1;"></path><path d="M117.279 144.941H115.544V139.489H117.279C119.066 139.489 119.711 140.702 119.711 142.152C119.711 143.769 118.824 144.941 117.279 144.941ZM117.262 140.604H116.904V143.827H117.262C117.965 143.827 118.311 143.157 118.311 142.157C118.311 141.158 117.89 140.604 117.262 140.604Z" fill="#D7FFE3" style="fill:#D7FFE3;fill:color(display-p3 0.8428 1.0000 0.8917);fill-opacity:1;"></path><path d="M124.864 144.941H122.754V139.489H124.892C125.705 139.489 126.581 139.836 126.581 140.8C126.581 141.383 126.143 141.851 125.751 141.903C126.276 141.984 126.783 142.446 126.783 143.191C126.783 144.196 126.137 144.947 124.864 144.947V144.941ZM124.604 140.581H124.137V141.464H124.604C124.985 141.464 125.204 141.303 125.204 140.996C125.204 140.708 124.944 140.586 124.604 140.586V140.581ZM124.587 142.504H124.131V143.85H124.593C125.083 143.85 125.377 143.607 125.377 143.139C125.377 142.695 125.054 142.51 124.587 142.51V142.504Z" fill="#D7FFE3" style="fill:#D7FFE3;fill:color(display-p3 0.8428 1.0000 0.8917);fill-opacity:1;"></path><path d="M129.123 144.941H127.59L128.391 143.145L127.002 139.489H128.466L129.152 141.591L129.884 139.489H131.336L129.123 144.941Z" fill="#D7FFE3" style="fill:#D7FFE3;fill:color(display-p3 0.8428 1.0000 0.8917);fill-opacity:1;"></path><path d="M138.179 145.022H137.983L135.545 142.562V144.941H134.167V139.408H134.369L136.807 141.857V139.489H138.179V145.022Z" fill="#D7FFE3" style="fill:#D7FFE3;fill:color(display-p3 0.8428 1.0000 0.8917);fill-opacity:1;"></path><path d="M141.856 144.941L141.654 143.988H140.449L140.253 144.941H138.858L140.311 139.426H141.827L143.279 144.941H141.85H141.856ZM141.049 140.881L140.645 142.897H141.458L141.049 140.881Z" fill="#D7FFE3" style="fill:#D7FFE3;fill:color(display-p3 0.8428 1.0000 0.8917);fill-opacity:1;"></path><path d="M145.569 140.656V144.941H144.186V140.656H143.079V139.489H146.67V140.656H145.563H145.569Z" fill="#D7FFE3" style="fill:#D7FFE3;fill:color(display-p3 0.8428 1.0000 0.8917);fill-opacity:1;"></path><path d="M151.291 143.422C151.291 144.323 150.767 145.091 149.291 145.091C147.816 145.091 147.291 144.318 147.291 143.422V139.489H148.674V143.278C148.674 143.648 148.853 143.988 149.303 143.988C149.781 143.988 149.931 143.671 149.931 143.284V139.489H151.297V143.422H151.291Z" fill="#D7FFE3" style="fill:#D7FFE3;fill:color(display-p3 0.8428 1.0000 0.8917);fill-opacity:1;"></path><path d="M154.888 144.941L153.96 142.885H153.66V144.941H152.282V139.489H154.334C155.464 139.489 156.207 140.072 156.207 141.129C156.207 141.84 155.764 142.394 155.199 142.596L156.427 144.941H154.893H154.888ZM154.098 140.575H153.66V141.846H153.948C154.513 141.846 154.818 141.638 154.818 141.176C154.818 140.777 154.53 140.575 154.092 140.575H154.098Z" fill="#D7FFE3" style="fill:#D7FFE3;fill:color(display-p3 0.8428 1.0000 0.8917);fill-opacity:1;"></path><path d="M157.107 144.941V139.489H160.376V140.598H158.485V141.487H160.376V142.539H158.485V143.832H160.376V144.941H157.107Z" fill="#D7FFE3" style="fill:#D7FFE3;fill:color(display-p3 0.8428 1.0000 0.8917);fill-opacity:1;"></path><path d="M98.0836 154.702C96.4467 154.702 95.7031 153.472 95.7031 151.855C95.7031 150.561 96.2507 149.134 98.5044 149.134C98.7638 149.134 99.0232 149.14 99.2768 149.169L99.2364 150.324C99.0289 150.318 98.8157 150.307 98.6312 150.307C97.415 150.307 97.1038 150.977 97.1038 151.959C97.1038 152.779 97.2825 153.587 97.9338 153.587C98.0087 153.587 98.0894 153.582 98.1413 153.553V151.699H99.4555V154.465C99.0347 154.61 98.562 154.702 98.0721 154.702H98.0836Z" fill="#D7FFE3" style="fill:#D7FFE3;fill:color(display-p3 0.8428 1.0000 0.8917);fill-opacity:1;"></path><path d="M104.303 153.126C104.303 154.027 103.778 154.795 102.303 154.795C100.827 154.795 100.303 154.021 100.303 153.126V149.192H101.686V152.981C101.686 153.351 101.865 153.692 102.314 153.692C102.793 153.692 102.943 153.374 102.943 152.987V149.192H104.309V153.126H104.303Z" fill="#D7FFE3" style="fill:#D7FFE3;fill:color(display-p3 0.8428 1.0000 0.8917);fill-opacity:1;"></path><path d="M105.294 154.645V149.192H106.672V154.645H105.294Z" fill="#D7FFE3" style="fill:#D7FFE3;fill:color(display-p3 0.8428 1.0000 0.8917);fill-opacity:1;"></path><path d="M109.479 154.645H107.744V149.192H109.479C111.266 149.192 111.911 150.405 111.911 151.855C111.911 153.472 111.024 154.645 109.479 154.645ZM109.462 150.307H109.104V153.53H109.462C110.165 153.53 110.511 152.86 110.511 151.861C110.511 150.861 110.09 150.307 109.462 150.307Z" fill="#D7FFE3" style="fill:#D7FFE3;fill:color(display-p3 0.8428 1.0000 0.8917);fill-opacity:1;"></path><path d="M112.696 154.645V149.192H115.964V150.301H114.074V151.191H115.964V152.242H114.074V153.536H115.964V154.645H112.696Z" fill="#D7FFE3" style="fill:#D7FFE3;fill:color(display-p3 0.8428 1.0000 0.8917);fill-opacity:1;"></path><path d="M118.586 154.645H116.851V149.192H118.586C120.372 149.192 121.018 150.405 121.018 151.855C121.018 153.472 120.13 154.645 118.586 154.645ZM118.568 150.307H118.211V153.53H118.568C119.271 153.53 119.617 152.86 119.617 151.861C119.617 150.861 119.197 150.307 118.568 150.307Z" fill="#D7FFE3" style="fill:#D7FFE3;fill:color(display-p3 0.8428 1.0000 0.8917);fill-opacity:1;"></path><path d="M126.172 154.645H124.062V149.192H126.201C127.014 149.192 127.89 149.539 127.89 150.503C127.89 151.087 127.452 151.555 127.06 151.607C127.584 151.687 128.091 152.149 128.091 152.894C128.091 153.899 127.446 154.65 126.172 154.65V154.645ZM125.913 150.284H125.446V151.168H125.913C126.293 151.168 126.512 151.006 126.512 150.7C126.512 150.411 126.253 150.29 125.913 150.29V150.284ZM125.901 152.207H125.446V153.553H125.907C126.397 153.553 126.691 153.31 126.691 152.843C126.691 152.398 126.368 152.213 125.901 152.213V152.207Z" fill="#D7FFE3" style="fill:#D7FFE3;fill:color(display-p3 0.8428 1.0000 0.8917);fill-opacity:1;"></path><path d="M130.433 154.645H128.899L129.701 152.848L128.312 149.192H129.776L130.461 151.295L131.194 149.192H132.646L130.433 154.645Z" fill="#D7FFE3" style="fill:#D7FFE3;fill:color(display-p3 0.8428 1.0000 0.8917);fill-opacity:1;"></path><path d="M139.278 154.789C137.226 154.789 135.215 154.027 135.215 151.918C135.215 149.81 137.469 149.048 139.278 149.048C140.523 149.048 141.596 149.227 142.529 149.672L142.224 150.804C141.377 150.446 140.449 150.226 139.411 150.226C137.751 150.226 136.794 150.827 136.794 151.936C136.794 153.045 137.797 153.628 139.411 153.628C139.936 153.628 140.5 153.565 140.967 153.432V151.832H142.483V154.252C141.682 154.569 140.604 154.795 139.273 154.795L139.278 154.789Z" fill="#D7FFE3" style="fill:#D7FFE3;fill:color(display-p3 0.8428 1.0000 0.8917);fill-opacity:1;"></path><path d="M145.354 154.789C143.827 154.789 143.273 153.432 143.273 151.918C143.273 150.405 143.844 149.048 145.354 149.048C146.864 149.048 147.435 150.376 147.435 151.918C147.435 153.46 146.853 154.789 145.354 154.789ZM145.354 150.168C144.789 150.168 144.651 150.873 144.651 151.918C144.651 152.964 144.795 153.668 145.354 153.668C145.913 153.668 146.057 152.964 146.057 151.918C146.057 150.804 145.902 150.168 145.354 150.168Z" fill="#D7FFE3" style="fill:#D7FFE3;fill:color(display-p3 0.8428 1.0000 0.8917);fill-opacity:1;"></path><path d="M149.971 154.645H148.236V149.192H149.971C151.758 149.192 152.404 150.405 152.404 151.855C152.404 153.472 151.516 154.645 149.971 154.645ZM149.954 150.307H149.597V153.53H149.954C150.657 153.53 151.003 152.86 151.003 151.861C151.003 150.861 150.582 150.307 149.954 150.307Z" fill="#D7FFE3" style="fill:#D7FFE3;fill:color(display-p3 0.8428 1.0000 0.8917);fill-opacity:1;"></path><path d="M59.7842 65.5369C61.1445 65.329 62.6662 65.1615 64.038 65.0286C64.5106 64.9824 64.9775 64.9073 65.4444 64.9882L77.8081 64.9131H77.7274L83.3933 64.2662L83.5374 64.2489L83.6758 64.2836L86.8171 64.7687L86.5923 64.7456L92.2583 64.4915H92.3793L92.5004 64.5146L98.1375 65.9932C98.5525 65.947 100.143 66.5592 100.835 66.744C101.752 67.0443 102.668 67.3562 103.579 67.6854C102.19 67.7259 100.628 67.7259 99.2327 67.7028C98.7485 67.7028 98.2643 67.7143 97.8032 67.5815L97.7283 67.5642L92.0911 66.0856L92.3332 66.1087L86.673 66.3628C86.5981 66.3744 86.5174 66.3628 86.4482 66.3397L83.3069 65.8545L83.5893 65.8719C83.549 65.8719 77.9176 66.5245 77.883 66.5245H77.8427L65.4271 66.6112C64.9544 66.6458 64.4818 66.5303 64.0092 66.4379C62.6489 66.178 61.1272 65.8603 59.7899 65.5253L59.7842 65.5369Z" fill="#D7FFE3" style="fill:#D7FFE3;fill:color(display-p3 0.8428 1.0000 0.8917);fill-opacity:1;"></path><path d="M90.557 56.4054C91.8481 56.1744 92.9259 56.4574 94.0384 57.0696L97.9579 58.8428L97.8253 58.7966L101.145 59.6167L102.805 60.0326C103.301 60.408 103.797 60.7777 104.275 61.2282C103.647 61.4072 103.036 61.4996 102.419 61.6036L100.759 61.1935L97.4391 60.3734C97.4045 60.3676 97.3354 60.3445 97.3008 60.3271L93.3813 58.554C92.1824 58.1382 85.6634 56.3477 84.9717 55.233L90.557 56.4054Z" fill="#D7FFE3" style="fill:#D7FFE3;fill:color(display-p3 0.8428 1.0000 0.8917);fill-opacity:1;"></path><path d="M83.082 43.2831C84.1368 43.8203 85.1513 44.4267 86.1542 45.039C86.4943 45.2989 87.3128 46.1479 87.6701 46.4482L87.2667 46.2461L92.7655 47.2742L93.0076 47.3204L93.1862 47.4936L97.1403 51.398L96.708 51.1785L102.253 52.1373L102.541 52.1893L102.731 52.4088C103.031 52.7726 103.832 53.6852 104.138 54.0317C104.731 55.0945 105.314 56.1745 105.838 57.2835C104.824 56.5961 103.844 55.8511 102.887 55.106C102.61 54.7537 101.809 53.8296 101.498 53.4657L101.976 53.7372L96.4314 52.7784L96.1835 52.738L96.0048 52.5589L92.0507 48.6545L92.4715 48.874L86.9727 47.8459L86.7421 47.8055C86.6038 47.6842 85.7162 46.841 85.5605 46.7081C85.3934 46.5464 85.1859 46.4309 85.0591 46.2403C84.3789 45.2873 83.7045 44.3112 83.0878 43.3005L83.082 43.2831Z" fill="#D7FFE3" style="fill:#D7FFE3;fill:color(display-p3 0.8428 1.0000 0.8917);fill-opacity:1;"></path><path d="M100.248 43.2195C101.493 43.335 102.404 43.8548 103.251 44.7212L105.724 46.8408C106.467 47.7419 108.087 49.9886 108.79 50.8954C109.263 52.9631 109.372 52.9227 107.493 51.8715C106.877 51.0456 105.188 48.7988 104.548 47.9498L104.669 48.0768L102.196 45.9572C101.211 45.2583 100.554 44.4324 100.248 43.2195Z" fill="#D7FFE3" style="fill:#D7FFE3;fill:color(display-p3 0.8428 1.0000 0.8917);fill-opacity:1;"></path><path d="M102.662 31.6913C104.512 32.8291 105.452 33.9265 106.605 35.717L108.582 39.9101L108.495 39.7542L111.614 44.1495C111.614 44.1495 111.665 44.2246 111.677 44.2534L112.282 45.449C113.026 46.6446 113.176 48.0134 113.372 49.4054C112.68 48.7527 112.063 48.0654 111.446 47.3781C111.089 46.7023 110.593 45.68 110.236 44.987L110.299 45.0909L107.181 40.6956C107.152 40.661 107.106 40.5859 107.095 40.5397L107.089 39.6213L105.21 36.5198C104.017 35.0701 105.066 36.8259 104.639 34.9661L102.668 31.6971L102.662 31.6913Z" fill="#D7FFE3" style="fill:#D7FFE3;fill:color(display-p3 0.8428 1.0000 0.8917);fill-opacity:1;"></path><path d="M114.525 34.943C115.557 35.6592 116.081 36.5717 116.387 37.7442L117.488 40.8227C117.499 40.8515 117.517 40.9035 117.517 40.9324L118.179 44.1206L118.508 45.7147C118.375 46.298 118.254 46.8756 118.047 47.4763C117.62 47.0084 117.275 46.5291 116.923 46.0497L116.589 44.4556L115.926 41.2674L115.955 41.3771L114.854 38.2987C114.341 37.1955 114.173 36.1559 114.514 34.9488L114.525 34.943Z" fill="#D7FFE3" style="fill:#D7FFE3;fill:color(display-p3 0.8428 1.0000 0.8917);fill-opacity:1;"></path><path d="M178.658 65.5369C177.298 65.329 175.776 65.1615 174.404 65.0286C173.931 64.9824 173.465 64.9073 172.998 64.9882L167.366 64.9131H167.447L161.781 64.2662L161.637 64.2489L161.499 64.2836L158.357 64.7687L158.582 64.7456L152.916 64.4915H152.795L152.674 64.5146L147.037 65.9932C146.622 65.947 145.031 66.5592 144.339 66.744C143.423 67.0443 142.506 67.3562 141.596 67.6854C142.985 67.7259 144.547 67.7259 145.942 67.7028C146.426 67.7028 146.91 67.7143 147.371 67.5815L147.446 67.5642L153.083 66.0856L152.841 66.1087L158.501 66.3628C158.576 66.3744 158.657 66.3628 158.726 66.3397L161.868 65.8545L161.585 65.8719C161.625 65.8719 167.257 66.5245 167.291 66.5245H167.332L173.015 66.6112C173.488 66.6458 173.96 66.5303 174.433 66.4379C175.793 66.178 177.315 65.8603 178.652 65.5253L178.658 65.5369Z" fill="#D7FFE3" style="fill:#D7FFE3;fill:color(display-p3 0.8428 1.0000 0.8917);fill-opacity:1;"></path><path d="M157.73 55.0656C156.439 54.8346 151.47 56.8272 150.358 57.4394L147.205 58.8487L147.338 58.8025L144.018 59.6226L142.358 60.0385C141.862 60.4139 141.366 60.7835 140.888 61.2341C141.516 61.4131 142.127 61.5055 142.744 61.6095L144.404 61.1994L147.724 60.3793C147.758 60.3735 147.827 60.3504 147.862 60.333L151.015 58.9238C152.214 58.5079 162.468 56.3478 163.16 55.2331L157.724 55.0656H157.73Z" fill="#D7FFE3" style="fill:#D7FFE3;fill:color(display-p3 0.8428 1.0000 0.8917);fill-opacity:1;"></path><path d="M162.087 43.2831C161.032 43.8202 160.018 44.4267 159.015 45.0389C158.675 45.2988 157.856 46.1478 157.499 46.4482L157.903 46.246L152.404 47.2741L152.162 47.3203L151.983 47.4936L148.029 51.3979L148.461 51.1785L142.916 52.1372L142.628 52.1892L142.438 52.4087C142.138 52.7726 141.337 53.6851 141.031 54.0317C140.438 55.0944 139.856 56.1745 139.331 57.2834C140.346 56.5961 141.325 55.851 142.282 55.1059C142.559 54.7536 143.36 53.8295 143.671 53.4656L143.193 53.7371L148.738 52.7783L148.986 52.7379L149.164 52.5589L153.118 48.6545L152.698 48.874L158.196 47.8459L158.427 47.8055C158.565 47.6842 159.453 46.8409 159.609 46.7081C159.776 46.5464 159.983 46.4308 160.11 46.2402C160.79 45.2872 161.465 44.3112 162.081 43.3004L162.087 43.2831Z" fill="#D7FFE3" style="fill:#D7FFE3;fill:color(display-p3 0.8428 1.0000 0.8917);fill-opacity:1;"></path><path d="M144.923 43.2196C143.678 43.3351 142.767 43.8549 141.92 44.7213L139.447 46.841C138.703 47.742 137.084 49.9887 136.38 50.8955C135.908 52.9632 135.798 52.9228 137.677 51.8716C138.294 51.0457 139.983 48.7989 140.623 47.9499L140.502 48.077L142.974 45.9573C143.96 45.2584 144.617 44.4325 144.923 43.2196Z" fill="#D7FFE3" style="fill:#D7FFE3;fill:color(display-p3 0.8428 1.0000 0.8917);fill-opacity:1;"></path><path d="M143.107 31.4314C141.257 32.5692 140.317 33.6666 139.164 35.4571L136.594 39.9101L136.68 39.7542L133.562 44.1495C133.562 44.1495 133.51 44.2246 133.498 44.2535L132.893 45.449C132.15 46.6446 132 48.0134 131.804 49.4054C132.495 48.7527 133.112 48.0654 133.729 47.3781C134.086 46.7024 134.582 45.6801 134.939 44.987L134.876 45.0909L137.994 40.6956C138.023 40.661 138.069 40.5859 138.081 40.5397L138.68 39.3557L140.559 36.2541C141.752 34.8044 140.703 36.5602 141.13 34.7004L143.101 31.4314H143.107Z" fill="#D7FFE3" style="fill:#D7FFE3;fill:color(display-p3 0.8428 1.0000 0.8917);fill-opacity:1;"></path><path d="M130.645 34.943C129.613 35.6592 129.089 36.5717 128.783 37.7442L127.682 40.8227C127.671 40.8515 127.654 40.9035 127.654 40.9324L126.991 44.1206L126.662 45.7147C126.795 46.298 126.916 46.8756 127.123 47.4763C127.55 47.0084 127.896 46.5291 128.247 46.0497L128.582 44.4556L129.244 41.2674L129.216 41.3771L130.316 38.2987C130.829 37.1955 130.997 36.1559 130.657 34.9488L130.645 34.943Z" fill="#D7FFE3" style="fill:#D7FFE3;fill:color(display-p3 0.8428 1.0000 0.8917);fill-opacity:1;"></path><path d="M123.509 19.5623C123.279 20.7117 123.123 21.8784 122.979 23.0335C122.939 23.2645 123.014 23.4898 123.031 23.715C123.037 23.7786 123.141 25.2052 123.164 25.2052L121.74 30.6343V30.2243L120.247 35.7054L120.189 35.9249L120.253 36.1444L121.821 41.5793L121.786 41.3425L121.769 42.7056C121.74 44.0802 122.241 45.449 122.524 46.8121C122.841 45.4606 123.383 44.1033 123.394 42.7287C123.383 42.5323 123.452 41.2732 123.383 41.1288L121.815 35.6939V36.1328L123.314 30.6517L123.371 30.4495L123.319 30.2416C123.348 30.386 124.633 24.2926 124.766 24.9453L124.657 23.5822C124.633 23.357 124.674 23.1259 124.599 22.9007C124.27 21.786 123.93 20.6597 123.521 19.5623H123.509Z" fill="#D7FFE3" style="fill:#D7FFE3;fill:color(display-p3 0.8428 1.0000 0.8917);fill-opacity:1;"></path><path d="M136.612 66.2531C131.257 65.6755 132.491 69.1583 129.822 69.1005C127.632 69.0601 125.637 68.2515 124.093 66.9173C125.372 68.5114 126.104 70.5444 126.058 72.7277C126.012 75.396 122.421 72.6295 122.951 79.3639C122.951 79.3813 122.951 79.3986 122.951 79.4102C122.882 79.3408 122.813 79.2773 122.744 79.2022C121.066 77.5157 120.046 75.1708 120.092 72.6121C120.133 70.4289 120.94 68.4248 122.283 66.8884C120.68 68.1533 118.657 68.8868 116.478 68.8464C113.815 68.8002 111.458 67.6162 109.821 65.7622C109.821 65.7622 109.809 65.7448 109.804 65.7391C109.804 65.7391 109.821 65.7391 109.827 65.7391C115.758 66.9173 113.931 62.8223 116.594 62.8685C118.772 62.909 120.761 63.7176 122.306 65.0517C121.043 63.4577 120.311 61.4362 120.358 59.2587C120.404 56.5788 125.084 57.2026 123.476 52.5589C125.263 54.2685 126.369 56.6885 126.317 59.3742C126.277 61.5632 125.47 63.5501 124.139 65.0864C125.73 63.8215 127.758 63.088 129.937 63.1284C132.606 63.1804 134.981 64.3818 136.606 66.2531H136.612Z" fill="#D7FFE3" style="fill:#D7FFE3;fill:color(display-p3 0.8428 1.0000 0.8917);fill-opacity:1;"></path></g><defs><clipPath id="clip0_44_4365"><rect width="250" height="187" fill="white" style="fill:white;fill-opacity:1;"></rect></clipPath></defs></svg>